<svg width="21" height="21" viewBox="0 0 21 21" fill="none" xmlns="http://www.w3.org/2000/svg">
<g clip-path="url(#clip0_1205_6)">
<g filter="url(#filter0_d_1205_6)">
<path d="M2.5 12.8667C2.5 13.0325 2.56585 13.1914 2.68306 13.3086C2.80027 13.4258 2.95924 13.4917 3.125 13.4917H15.3663L12.6838 16.1742C12.5699 16.2921 12.5069 16.4499 12.5083 16.6138C12.5098 16.7777 12.5755 16.9345 12.6914 17.0503C12.8072 17.1662 12.964 17.2319 13.1279 17.2334C13.2917 17.2348 13.4496 17.1718 13.5675 17.0579L17.3175 13.3079C17.3753 13.2504 17.4212 13.1821 17.4525 13.1068C17.4839 13.0315 17.5 12.9507 17.5 12.8692V12.8667C17.5 12.7854 17.4838 12.7042 17.4513 12.6279C17.4201 12.5522 17.3742 12.4833 17.3162 12.4254L13.5663 8.67544C13.4484 8.5616 13.2905 8.4986 13.1266 8.50002C12.9628 8.50145 12.806 8.56718 12.6901 8.68306C12.5742 8.79894 12.5085 8.9557 12.5071 9.11957C12.5057 9.28344 12.5687 9.44132 12.6825 9.5592L15.3663 12.2417H3.125C2.95924 12.2417 2.80027 12.3075 2.68306 12.4248C2.56585 12.542 2.5 12.7009 2.5 12.8667Z" fill="white"/>
</g>
</g>
<defs>
<filter id="filter0_d_1205_6" x="-1.5" y="8.5" width="23" height="16.7334" filterUnits="userSpaceOnUse" color-interpolation-filters="sRGB">
<feFlood flood-opacity="0" result="BackgroundImageFix"/>
<feColorMatrix in="SourceAlpha" type="matrix" values="0 0 0 0 0 0 0 0 0 0 0 0 0 0 0 0 0 0 127 0" result="hardAlpha"/>
<feOffset dy="4"/>
<feGaussianBlur stdDeviation="2"/>
<feComposite in2="hardAlpha" operator="out"/>
<feColorMatrix type="matrix" values="0 0 0 0 0 0 0 0 0 0 0 0 0 0 0 0 0 0 0.25 0"/>
<feBlend mode="normal" in2="BackgroundImageFix" result="effect1_dropShadow_1205_6"/>
<feBlend mode="normal" in="SourceGraphic" in2="effect1_dropShadow_1205_6" result="shape"/>
</filter>
<clipPath id="clip0_1205_6">
<rect width="20" height="20" fill="white" transform="translate(0.5 0.5)"/>
</clipPath>
</defs>
</svg>
