<svg width="43" height="48" viewBox="0 0 43 48" fill="none" xmlns="http://www.w3.org/2000/svg">
<g clip-path="url(#clip0_817_390)">
<path d="M25.1155 24.646L23.4682 22.8028C23.6479 22.3889 23.8053 21.9639 23.9398 21.5289H26.2693C27.0348 21.5289 27.6556 20.8343 27.6556 19.9775V15.4299C27.6556 14.5733 27.035 13.8786 26.2693 13.8786H23.9397C23.8052 13.4437 23.6478 13.0187 23.4682 12.6049L25.1155 10.7614C25.6569 10.1556 25.6569 9.17339 25.1155 8.56762L22.242 5.35199C21.7005 4.74637 20.8231 4.74637 20.2816 5.35199L18.6342 7.19544C18.2644 6.99446 17.8847 6.81817 17.496 6.66783V4.06084C17.496 3.20424 16.8753 2.50952 16.1097 2.50952H12.0459C11.2804 2.50952 10.6596 3.20408 10.6596 4.06084V6.66783C10.271 6.81833 9.89117 6.9943 9.52137 7.19544L7.87418 5.35199C7.61426 5.06113 7.26158 4.89766 6.8939 4.89766C6.52622 4.89766 6.17368 5.06113 5.91362 5.35199L3.03994 8.56762C2.78002 8.85848 2.63394 9.25315 2.63394 9.6646C2.63394 10.076 2.78002 10.4706 3.03994 10.7616L4.68727 12.605C4.50768 13.0187 4.35014 13.4437 4.2158 13.8788H1.88628C1.12067 13.8788 0.5 14.5733 0.5 15.4299V19.9777C0.5 20.8343 1.12067 21.529 1.88628 21.529H4.2158C4.35042 21.9639 4.50768 22.3889 4.68741 22.8029L3.04008 24.6462C2.49875 25.252 2.49875 26.2342 3.04008 26.84L5.91362 30.0556C6.45509 30.6611 7.33257 30.6614 7.87404 30.0556L9.52137 28.2122C9.89103 28.4133 10.271 28.5896 10.6596 28.74V31.3469C10.6596 32.2036 11.2803 32.8983 12.0459 32.8983H16.1099C16.8753 32.8983 17.4961 32.2037 17.4961 31.3469V28.74C17.8846 28.5895 18.2646 28.4133 18.6344 28.2122L20.2817 30.0556C20.8232 30.6613 21.7007 30.6613 22.2421 30.0556L25.1157 26.84C25.657 26.2341 25.657 25.2518 25.1155 24.646ZM21.5464 19.6307C21.3555 20.561 21.0291 21.4426 20.5763 22.2509C20.2331 22.8635 20.3138 23.6605 20.7707 24.1716L22.175 25.743L21.2619 26.765L19.8575 25.1934C19.4004 24.6821 18.6885 24.5922 18.1411 24.9758C17.4185 25.4827 16.6308 25.8479 15.7999 26.0613C15.17 26.223 14.7237 26.8503 14.7237 27.5733V29.7956H13.4323V27.5733C13.4323 26.8503 12.986 26.2232 12.3562 26.0613C11.5252 25.8479 10.7375 25.4827 10.0149 24.9758C9.46792 24.5924 8.75562 24.682 8.29857 25.1934L6.89418 26.765L5.98107 25.743L7.38531 24.1716C7.84222 23.6603 7.92283 22.8635 7.57976 22.2509C7.12695 21.4426 6.80057 20.561 6.60966 19.6307C6.46513 18.926 5.90471 18.4265 5.25859 18.4265H3.27242V16.9814H5.25816C5.90414 16.9814 6.46457 16.482 6.60923 15.7774C6.80028 14.8469 7.12653 13.9655 7.57933 13.1573C7.92269 12.5447 7.84194 11.7478 7.38503 11.2365L5.98065 9.66492L6.8939 8.6431L8.29814 10.2147C8.75505 10.7261 9.46735 10.8159 10.0146 10.4321C10.737 9.92539 11.5246 9.56031 12.3557 9.34683C12.9856 9.1851 13.4319 8.5578 13.4319 7.83476V5.61215H14.7233V7.83445C14.7233 8.55749 15.1696 9.18463 15.7995 9.34652C16.6307 9.56 17.4182 9.92508 18.1406 10.4318C18.688 10.8159 19.4003 10.726 19.8571 10.2144L21.2614 8.64278L22.1745 9.6646L20.7702 11.2362C20.3133 11.7476 20.2326 12.5444 20.5759 13.157C21.0287 13.9652 21.3549 14.8468 21.546 15.7771C21.6905 16.4817 22.2511 16.9811 22.897 16.9811H24.8828V18.4262H22.897C22.2512 18.4264 21.6909 18.9258 21.5464 19.6307Z" fill="#F16529"/>
<path d="M14.0777 11.7427C11.1404 11.7427 8.75081 14.4168 8.75081 17.7038C8.75081 20.9908 11.1404 23.6649 14.0777 23.6649C17.0151 23.6649 19.4047 20.9908 19.4047 17.7038C19.4047 14.4168 17.0152 11.7427 14.0777 11.7427ZM14.0777 20.5624C12.6691 20.5624 11.5232 19.2801 11.5232 17.7038C11.5232 16.1274 12.6693 14.8452 14.0777 14.8452C15.4862 14.8452 16.6322 16.1274 16.6322 17.7038C16.6322 19.2801 15.4864 20.5624 14.0777 20.5624Z" fill="#F16529"/>
<path d="M41.592 35.4869C42.1943 35.3625 42.5925 34.7154 42.4813 34.0414L41.9582 30.868C41.9049 30.5443 41.7388 30.2577 41.4967 30.0711C41.2544 29.8845 40.9556 29.8131 40.6666 29.8728L39.128 30.1903C39.0088 29.9611 38.8797 29.7384 38.7415 29.5229L39.6286 28.0811C39.7953 27.8099 39.8591 27.4758 39.8058 27.1522C39.7525 26.8284 39.5863 26.5418 39.3441 26.3552L36.9689 24.5252C36.4649 24.1367 35.7741 24.2789 35.4267 24.8435L34.5395 26.2855C34.3103 26.2177 34.0785 26.1625 33.8446 26.1196L33.5608 24.398C33.4496 23.724 32.8707 23.2779 32.2691 23.4028L29.4333 23.9882C29.144 24.0478 28.8879 24.2338 28.7212 24.5047C28.5544 24.7759 28.4907 25.11 28.544 25.4336L28.8278 27.1553C28.6229 27.2889 28.4239 27.4332 28.2313 27.5878L26.9429 26.5951C26.7005 26.4086 26.402 26.3375 26.1128 26.3969C25.8235 26.4565 25.5674 26.6425 25.4006 26.9135L23.7653 29.5715C23.5985 29.8426 23.5348 30.1766 23.5881 30.5003C23.6414 30.824 23.8076 31.1108 24.0498 31.2974L25.3383 32.2899C25.2777 32.5466 25.2284 32.8058 25.1901 33.0677L23.6515 33.3853C23.3621 33.445 23.106 33.6309 22.9393 33.9018C22.7725 34.1731 22.7088 34.5071 22.7621 34.8307L23.2854 38.0041C23.3965 38.6781 23.9746 39.1244 24.577 38.9993L26.1156 38.6817C26.2348 38.9109 26.3639 39.1337 26.5021 39.3492L25.615 40.7909C25.4483 41.0621 25.3845 41.396 25.4378 41.7198C25.4911 42.0436 25.6573 42.3302 25.8995 42.5168L28.2747 44.3467C28.7787 44.7352 29.4697 44.593 29.8169 44.0285L30.7039 42.5867C30.9332 42.6543 31.165 42.7095 31.399 42.7525L31.6828 44.4741C31.7814 45.072 32.2476 45.4903 32.7721 45.4903C32.8389 45.4903 32.9066 45.4836 32.9745 45.4695L35.8103 44.8842C36.0996 44.8245 36.3557 44.6386 36.5224 44.3676C36.6892 44.0964 36.7529 43.7623 36.6996 43.4387L36.4158 41.717C36.6207 41.5834 36.8197 41.4391 37.0123 41.2845L38.3006 42.2772C38.5429 42.4639 38.8412 42.5353 39.1307 42.4754C39.42 42.4158 39.6761 42.2298 39.8428 41.9588L41.4781 39.3008C41.8254 38.7363 41.6982 37.9638 41.1938 37.5751L39.9053 36.5823C39.9659 36.3257 40.0152 36.0664 40.0535 35.8046L41.592 35.4869ZM38.8365 33.532C38.328 33.6369 37.9518 34.1212 37.9298 34.6991C37.9043 35.3598 37.781 36.0064 37.5632 36.6213C37.3727 37.1591 37.5395 37.7728 37.9653 38.1008L39.0226 38.9156L38.645 39.5293L37.5878 38.7147C37.1618 38.3864 36.59 38.4312 36.2093 38.8223C35.7736 39.2693 35.2777 39.629 34.7352 39.8914C34.2606 40.1209 33.9907 40.6869 34.0844 41.2557L34.3174 42.6688L33.6627 42.804L33.4298 41.391C33.3361 40.8221 32.9035 40.4011 32.3871 40.3763C31.7962 40.3476 31.2183 40.2096 30.6689 39.9661C30.5357 39.9071 30.3975 39.8787 30.2608 39.8787C29.9042 39.8787 29.5588 40.0718 29.3469 40.416L28.6189 41.5992L28.0705 41.1767L28.7985 39.9936C29.0917 39.5171 29.0518 38.8773 28.7024 38.451C28.3029 37.9634 27.9814 37.4085 27.7468 36.8011C27.5416 36.2702 27.0347 35.9679 26.5277 36.0732L25.265 36.3338L25.1441 35.6013L26.4069 35.3406C26.9155 35.2357 27.2916 34.7515 27.3137 34.1735C27.3391 33.5128 27.4625 32.8662 27.6802 32.251C27.8707 31.7132 27.7038 31.0997 27.278 30.7715L26.2207 29.957L26.5983 29.3433L27.6556 30.158C28.0817 30.4863 28.6532 30.4414 29.0341 30.0504C29.4698 29.6033 29.9658 29.2436 30.5085 28.9811C30.9828 28.7514 31.2528 28.1855 31.159 27.6168L30.9261 26.2038L31.5807 26.0687L31.8136 27.4817C31.9074 28.0507 32.3401 28.4717 32.8565 28.4964C33.447 28.5248 34.0248 28.6628 34.5743 28.9065C35.0553 29.1199 35.6034 28.933 35.8964 28.4566L36.6245 27.2732L37.1729 27.6958L36.4449 28.879C36.1518 29.3556 36.1917 29.9954 36.5411 30.4218C36.9406 30.9092 37.262 31.464 37.4965 32.0712C37.7014 32.6021 38.2078 32.9045 38.7156 32.7995L39.9784 32.5388L40.0992 33.2714L38.8365 33.532Z" fill="#F16529"/>
<path d="M34.8363 30.8364C33.9772 30.1746 32.9388 29.9268 31.9132 30.1383C30.8873 30.3501 29.9966 30.9964 29.405 31.9577C28.1838 33.9425 28.6333 36.6691 30.407 38.0356C31.0818 38.5556 31.8526 38.8049 32.6158 38.8049C33.8587 38.8049 35.0818 38.1439 35.8384 36.9143C37.0595 34.9295 36.6099 32.2029 34.8363 30.8364ZM34.0116 35.5068C33.484 36.3642 32.4312 36.5816 31.665 35.9914C30.8986 35.4009 30.7043 34.2228 31.232 33.3654C31.2321 33.3652 31.2321 33.3652 31.2321 33.3652C31.4875 32.9498 31.8724 32.6707 32.3156 32.5792C32.4189 32.558 32.5225 32.5474 32.6253 32.5474C32.9637 32.5474 33.2939 32.6615 33.5786 32.8808C34.3449 33.4712 34.5392 34.6492 34.0116 35.5068Z" fill="#F16529"/>
</g>
<defs>
<clipPath id="clip0_817_390">
<rect width="42" height="47" fill="white" transform="translate(0.5 0.5)"/>
</clipPath>
</defs>
</svg>
