<svg width="27" height="24" viewBox="0 0 27 24" fill="none" xmlns="http://www.w3.org/2000/svg">
<g clip-path="url(#clip0_406_179)">
<path d="M15.7726 12.3299L14.7371 11.3886C14.8501 11.1773 14.9491 10.9603 15.0336 10.7381H16.4979C16.979 10.7381 17.3692 10.3835 17.3692 9.94596V7.62378C17.3692 7.18637 16.9791 6.83162 16.4979 6.83162H15.0335C14.949 6.60956 14.85 6.39251 14.7371 6.18119L15.7726 5.23986C16.1129 4.93053 16.1129 4.42895 15.7726 4.11962L13.9664 2.4776C13.626 2.16835 13.0745 2.16835 12.7341 2.4776L11.6987 3.41893C11.4662 3.3163 11.2275 3.22628 10.9832 3.14952V1.81828C10.9832 1.38087 10.5931 1.02612 10.1118 1.02612H7.55741C7.07626 1.02612 6.68603 1.38079 6.68603 1.81828V3.14952C6.44177 3.22637 6.20301 3.31622 5.97057 3.41893L4.93519 2.4776C4.77181 2.32907 4.55012 2.2456 4.31901 2.2456C4.0879 2.2456 3.8663 2.32907 3.70283 2.4776L1.89652 4.11962C1.73314 4.26814 1.64132 4.46968 1.64132 4.67978C1.64132 4.88988 1.73314 5.09134 1.89652 5.23994L2.93199 6.18127C2.8191 6.39251 2.72008 6.60956 2.63563 6.8317H1.17137C0.690121 6.8317 0.299988 7.18637 0.299988 7.62378V9.94604C0.299988 10.3835 0.690121 10.7382 1.17137 10.7382H2.63563C2.72025 10.9603 2.8191 11.1773 2.93208 11.3887L1.89661 12.33C1.55634 12.6393 1.55634 13.1409 1.89661 13.4502L3.70283 15.0922C4.04319 15.4014 4.59474 15.4016 4.9351 15.0922L5.97057 14.1509C6.20292 14.2536 6.44177 14.3436 6.68603 14.4204V15.7516C6.68603 16.189 7.07617 16.5438 7.55741 16.5438H10.1119C10.5931 16.5438 10.9833 16.1891 10.9833 15.7516V14.4204C11.2275 14.3435 11.4663 14.2536 11.6987 14.1509L12.7342 15.0922C13.0746 15.4015 13.6261 15.4015 13.9665 15.0922L15.7727 13.4502C16.113 13.1408 16.113 12.6392 15.7726 12.3299ZM13.5291 9.76883C13.4091 10.2439 13.204 10.6941 12.9194 11.1069C12.7036 11.4197 12.7544 11.8266 13.0416 12.0876L13.9243 12.89L13.3503 13.4119L12.4675 12.6094C12.1803 12.3483 11.7328 12.3024 11.3887 12.4983C10.9345 12.7571 10.4394 12.9436 9.91706 13.0525C9.52114 13.1351 9.24061 13.4555 9.24061 13.8247V14.9595H8.42888V13.8247C8.42888 13.4555 8.14834 13.1352 7.75243 13.0525C7.23012 12.9436 6.73501 12.7571 6.28079 12.4983C5.93697 12.3025 5.48923 12.3482 5.20194 12.6094L4.31919 13.4119L3.74523 12.89L4.6279 12.0876C4.9151 11.8265 4.96577 11.4197 4.75012 11.1069C4.4655 10.6941 4.26034 10.2439 4.14034 9.76883C4.0495 9.40899 3.69723 9.15396 3.2911 9.15396H2.04265V8.41602H3.29083C3.69688 8.41602 4.04914 8.16099 4.14008 7.80123C4.26017 7.32608 4.46523 6.87598 4.74986 6.46329C4.96568 6.15049 4.91492 5.74354 4.62772 5.48245L3.74497 4.67994L4.31901 4.15816L5.20168 4.96067C5.48888 5.22184 5.93661 5.26766 6.28061 5.0717C6.73465 4.81295 7.22977 4.62653 7.75217 4.51752C8.14808 4.43493 8.42861 4.11461 8.42861 3.7454V2.61045H9.24035V3.74523C9.24035 4.11445 9.52088 4.43469 9.91679 4.51736C10.4393 4.62637 10.9343 4.81279 11.3883 5.07154C11.7324 5.26766 12.1802 5.22176 12.4673 4.96051L13.35 4.158L13.924 4.67978L13.0412 5.48228C12.754 5.74346 12.7034 6.15033 12.9191 6.46313C13.2037 6.87582 13.4088 7.326 13.5289 7.80107C13.6197 8.16083 13.9721 8.41586 14.3781 8.41586H15.6263V9.1538H14.3781C13.9722 9.15388 13.62 9.40891 13.5291 9.76883Z" fill="white" fill-opacity="0.87"/>
<path d="M8.83456 5.74097C6.98825 5.74097 5.48621 7.10646 5.48621 8.78493C5.48621 10.4634 6.98825 11.8289 8.83456 11.8289C10.6809 11.8289 12.1829 10.4634 12.1829 8.78493C12.1829 7.10646 10.681 5.74097 8.83456 5.74097ZM8.83456 10.2446C7.94914 10.2446 7.22887 9.58986 7.22887 8.78493C7.22887 7.98 7.94923 7.32521 8.83456 7.32521C9.71989 7.32521 10.4403 7.98 10.4403 8.78493C10.4403 9.58986 9.71998 10.2446 8.83456 10.2446Z" fill="white" fill-opacity="0.87"/>
<path d="M26.1292 17.8656C26.5078 17.8021 26.7581 17.4717 26.6882 17.1275L26.3594 15.5071C26.3259 15.3417 26.2215 15.1954 26.0693 15.1001C25.917 15.0048 25.7292 14.9684 25.5475 14.9989L24.5804 15.161C24.5055 15.044 24.4243 14.9303 24.3375 14.8202L24.8951 14.084C24.9999 13.9454 25.04 13.7749 25.0064 13.6096C24.9729 13.4443 24.8685 13.2979 24.7162 13.2027L23.2232 12.2682C22.9064 12.0698 22.4722 12.1424 22.2539 12.4307L21.6962 13.167C21.5521 13.1324 21.4065 13.1042 21.2594 13.0823L21.081 12.2032C21.0112 11.8591 20.6473 11.6313 20.2691 11.695L18.4866 11.9939C18.3048 12.0244 18.1438 12.1193 18.039 12.2577C17.9342 12.3962 17.8941 12.5668 17.9276 12.732L18.106 13.6112C17.9772 13.6794 17.8521 13.7531 17.7311 13.8321L16.9212 13.3252C16.7689 13.2299 16.5812 13.1936 16.3994 13.2239C16.2176 13.2544 16.0566 13.3493 15.9518 13.4878L14.9239 14.845C14.819 14.9834 14.779 15.154 14.8125 15.3193C14.846 15.4846 14.9505 15.631 15.1027 15.7263L15.9126 16.2331C15.8745 16.3642 15.8435 16.4966 15.8194 16.6303L14.8523 16.7925C14.6705 16.8229 14.5095 16.9179 14.4047 17.0562C14.2998 17.1947 14.2598 17.3653 14.2933 17.5306L14.6222 19.151C14.6921 19.4952 15.0554 19.7231 15.4341 19.6592L16.4012 19.497C16.4761 19.6141 16.5573 19.7278 16.6441 19.8379L16.0865 20.5741C15.9817 20.7126 15.9417 20.8831 15.9752 21.0484C16.0087 21.2137 16.1131 21.3601 16.2654 21.4553L17.7584 22.3898C18.0752 22.5882 18.5095 22.5155 18.7277 22.2273L19.2853 21.4911C19.4294 21.5256 19.5751 21.5538 19.7222 21.5758L19.9006 22.4549C19.9625 22.7602 20.2556 22.9737 20.5853 22.9737C20.6273 22.9737 20.6698 22.9703 20.7125 22.9631L22.495 22.6642C22.6769 22.6338 22.8378 22.5388 22.9426 22.4005C23.0474 22.262 23.0875 22.0914 23.054 21.9261L22.8756 21.0469C23.0044 20.9787 23.1295 20.905 23.2505 20.8261L24.0603 21.333C24.2127 21.4284 24.4001 21.4648 24.5821 21.4343C24.764 21.4038 24.9249 21.3088 25.0297 21.1704L26.0576 19.8132C26.276 19.5249 26.196 19.1304 25.8789 18.932L25.069 18.425C25.1071 18.294 25.1381 18.1615 25.1622 18.0279L26.1292 17.8656ZM24.3972 16.8674C24.0776 16.921 23.8411 17.1682 23.8273 17.4633C23.8113 17.8007 23.7337 18.1309 23.5968 18.4449C23.4771 18.7195 23.5819 19.0329 23.8496 19.2004L24.5142 19.6165L24.2768 19.9299L23.6123 19.5139C23.3445 19.3463 22.9851 19.3691 22.7458 19.5688C22.472 19.7971 22.1602 19.9808 21.8193 20.1147C21.5209 20.2319 21.3513 20.521 21.4102 20.8114L21.5566 21.533L21.1451 21.602L20.9987 20.8805C20.9398 20.59 20.6679 20.375 20.3433 20.3623C19.9719 20.3477 19.6086 20.2772 19.2633 20.1529C19.1795 20.1227 19.0927 20.1083 19.0067 20.1083C18.7826 20.1083 18.5655 20.2069 18.4323 20.3826L17.9747 20.9868L17.63 20.7711L18.0876 20.1669C18.2719 19.9236 18.2468 19.5969 18.0272 19.3792C17.7761 19.1303 17.574 18.8469 17.4265 18.5367C17.2976 18.2656 16.9789 18.1113 16.6602 18.165L15.8665 18.2981L15.7905 17.924L16.5843 17.7909C16.904 17.7374 17.1404 17.4901 17.1543 17.195C17.1703 16.8576 17.2478 16.5274 17.3847 16.2132C17.5044 15.9387 17.3995 15.6254 17.1319 15.4578L16.4673 15.0419L16.7046 14.7285L17.3692 15.1445C17.637 15.3122 17.9962 15.2892 18.2357 15.0895C18.5096 14.8612 18.8213 14.6776 19.1625 14.5435C19.4606 14.4263 19.6303 14.1373 19.5713 13.8469L19.4249 13.1253L19.8364 13.0563L19.9828 13.7779C20.0417 14.0684 20.3137 14.2834 20.6384 14.296C21.0095 14.3105 21.3727 14.381 21.7181 14.5054C22.0204 14.6144 22.3649 14.5189 22.5491 14.2757L23.0068 13.6714L23.3515 13.8872L22.8939 14.4914C22.7097 14.7348 22.7347 15.0615 22.9544 15.2792C23.2055 15.5281 23.4075 15.8114 23.5549 16.1214C23.6837 16.3926 24.002 16.547 24.3212 16.4933L25.115 16.3602L25.1909 16.7343L24.3972 16.8674Z" fill="white" fill-opacity="0.87"/>
<path d="M21.8828 15.491C21.3428 15.153 20.6901 15.0265 20.0454 15.1345C19.4006 15.2427 18.8407 15.5727 18.4689 16.0636C17.7012 17.0771 17.9838 18.4694 19.0986 19.1672C19.5228 19.4327 20.0074 19.56 20.4871 19.56C21.2683 19.56 22.0371 19.2225 22.5127 18.5946C23.2802 17.5811 22.9977 16.1888 21.8828 15.491ZM21.3644 17.8759C21.0328 18.3137 20.371 18.4247 19.8894 18.1233C19.4077 17.8218 19.2856 17.2202 19.6172 16.7824C19.6173 16.7823 19.6173 16.7823 19.6173 16.7823C19.7778 16.5702 20.0198 16.4276 20.2984 16.3809C20.3633 16.3701 20.4284 16.3647 20.493 16.3647C20.7058 16.3647 20.9133 16.4229 21.0922 16.5349C21.5739 16.8364 21.6961 17.438 21.3644 17.8759Z" fill="white" fill-opacity="0.87"/>
</g>
<defs>
<clipPath id="clip0_406_179">
<rect width="26.4" height="24" fill="white" transform="translate(0.299988)"/>
</clipPath>
</defs>
</svg>
