<svg width="24" height="22" viewBox="0 0 24 22" fill="none" xmlns="http://www.w3.org/2000/svg">
<path d="M14.066 11.2998L13.1247 10.4441C13.2274 10.252 13.3173 10.0547 13.3942 9.85277H14.7253C15.1627 9.85277 15.5175 9.53035 15.5175 9.13263V7.02155C15.5175 6.6239 15.1628 6.3014 14.7253 6.3014H13.3941C13.3173 6.09953 13.2273 5.90221 13.1247 5.71011L14.066 4.85435C14.3754 4.57314 14.3754 4.11716 14.066 3.83595L12.424 2.3432C12.1146 2.06207 11.6132 2.06207 11.3038 2.3432L10.3624 3.19896C10.1511 3.10566 9.93414 3.02383 9.712 2.95404V1.74383C9.712 1.34618 9.35733 1.02368 8.91984 1.02368H6.59766C6.16024 1.02368 5.8055 1.34611 5.8055 1.74383V2.95404C5.58343 3.0239 5.36638 3.10559 5.15507 3.19896L4.21382 2.3432C4.06529 2.20818 3.86376 2.1323 3.65366 2.1323C3.44356 2.1323 3.2421 2.20818 3.0935 2.3432L1.45139 3.83595C1.30287 3.97097 1.21939 4.15419 1.21939 4.34519C1.21939 4.53619 1.30287 4.71933 1.45139 4.85443L2.39273 5.71018C2.2901 5.90221 2.20008 6.09953 2.12331 6.30148H0.792162C0.354667 6.30148 0 6.6239 0 7.02155V9.1327C0 9.53035 0.354667 9.85285 0.792162 9.85285H2.12331C2.20024 10.0547 2.2901 10.252 2.39281 10.4442L1.45147 11.2999C1.14214 11.5811 1.14214 12.0371 1.45147 12.3183L3.0935 13.811C3.40291 14.0921 3.90432 14.0923 4.21374 13.811L5.15507 12.9553C5.3663 13.0487 5.58343 13.1305 5.8055 13.2003V14.4105C5.8055 14.8081 6.16016 15.1306 6.59766 15.1306H8.91992C9.35733 15.1306 9.71208 14.8082 9.71208 14.4105V13.2003C9.93406 13.1304 10.1512 13.0487 10.3625 12.9553L11.3038 13.811C11.6133 14.0922 12.1147 14.0922 12.4241 13.811L14.0661 12.3183C14.3754 12.037 14.3754 11.581 14.066 11.2998ZM12.0265 8.9716C11.9174 9.40348 11.7309 9.81274 11.4722 10.188C11.276 10.4724 11.3222 10.8423 11.5833 11.0796L12.3857 11.8091L11.8639 12.2835L11.0614 11.5539C10.8002 11.3166 10.3935 11.2748 10.0806 11.4529C9.66772 11.6882 9.21762 11.8578 8.74279 11.9568C8.38287 12.0319 8.12784 12.3231 8.12784 12.6587V13.6903H7.3899V12.6587C7.3899 12.3231 7.13487 12.0319 6.77495 11.9568C6.30012 11.8578 5.85002 11.6882 5.43709 11.4529C5.12453 11.2749 4.71749 11.3165 4.45632 11.5539L3.65382 12.2835L3.13204 11.8091L3.93446 11.0796C4.19556 10.8422 4.24162 10.4724 4.04558 10.188C3.78683 9.81274 3.60032 9.40348 3.49123 8.9716C3.40865 8.64447 3.0884 8.41263 2.71919 8.41263H1.58424V7.74177H2.71895C3.08808 7.74177 3.40832 7.50993 3.49099 7.18287C3.60016 6.75092 3.78659 6.34173 4.04533 5.96657C4.24154 5.68219 4.19539 5.31224 3.9343 5.07488L3.1318 4.34533L3.65366 3.87099L4.45608 4.60054C4.71717 4.83797 5.1242 4.87962 5.43693 4.70148C5.8497 4.46625 6.2998 4.29678 6.77471 4.19768C7.13463 4.1226 7.38966 3.83139 7.38966 3.49575V2.46398H8.1276V3.4956C8.1276 3.83125 8.38263 4.12238 8.74255 4.19753C9.21754 4.29663 9.66756 4.46611 10.0803 4.70133C10.3931 4.87962 10.8002 4.8379 11.0612 4.60039L11.8637 3.87084L12.3855 4.34519L11.5829 5.07474C11.3219 5.31217 11.2758 5.68205 11.4719 5.96642C11.7307 6.34159 11.9171 6.75084 12.0263 7.18273C12.1088 7.50978 12.4292 7.74162 12.7983 7.74162H13.933V8.41248H12.7983C12.4293 8.41255 12.1091 8.6444 12.0265 8.9716Z" fill="#E84949"/>
<path d="M7.75871 5.30981C6.08025 5.30981 4.71475 6.55117 4.71475 8.07705C4.71475 9.60293 6.08025 10.8443 7.75871 10.8443C9.43718 10.8443 10.8027 9.60293 10.8027 8.07705C10.8027 6.55117 9.43726 5.30981 7.75871 5.30981ZM7.75871 9.40407C6.95378 9.40407 6.29899 8.8088 6.29899 8.07705C6.29899 7.3453 6.95386 6.75004 7.75871 6.75004C8.56356 6.75004 9.21843 7.3453 9.21843 8.07705C9.21843 8.8088 8.56364 9.40407 7.75871 9.40407Z" fill="#E84949"/>
<path d="M23.4811 16.3322C23.8253 16.2745 24.0528 15.9741 23.9893 15.6612L23.6904 14.1881C23.66 14.0378 23.565 13.9048 23.4267 13.8182C23.2882 13.7315 23.1175 13.6984 22.9523 13.7261L22.0731 13.8735C22.005 13.7671 21.9312 13.6637 21.8523 13.5637L22.3592 12.8944C22.4545 12.7685 22.4909 12.6134 22.4604 12.4631C22.43 12.3128 22.335 12.1798 22.1966 12.0932L20.8394 11.2437C20.5514 11.0633 20.1566 11.1293 19.9581 11.3914L19.4512 12.0608C19.3202 12.0294 19.1877 12.0037 19.0541 11.9838L18.8919 11.1846C18.8284 10.8717 18.4975 10.6647 18.1538 10.7226L16.5333 10.9944C16.368 11.022 16.2217 11.1084 16.1264 11.2341C16.0311 11.36 15.9947 11.5151 16.0251 11.6654L16.1873 12.4646C16.0702 12.5266 15.9565 12.5936 15.8465 12.6654L15.1102 12.2046C14.9717 12.118 14.8011 12.085 14.6359 12.1125C14.4706 12.1402 14.3242 12.2265 14.2289 12.3524L13.2945 13.5862C13.1991 13.7121 13.1628 13.8672 13.1932 14.0174C13.2237 14.1677 13.3186 14.3008 13.4571 14.3874L14.1933 14.8482C14.1587 14.9673 14.1305 15.0876 14.1086 15.2092L13.2294 15.3567C13.0641 15.3844 12.9177 15.4707 12.8225 15.5964C12.7271 15.7224 12.6908 15.8774 12.7212 16.0277L13.0202 17.5008C13.0837 17.8137 13.4141 18.0208 13.7583 17.9628L14.6375 17.8154C14.7056 17.9217 14.7794 18.0252 14.8583 18.1252L14.3514 18.7945C14.2562 18.9204 14.2197 19.0754 14.2502 19.2257C14.2807 19.376 14.3756 19.509 14.514 19.5956L15.8713 20.4452C16.1593 20.6255 16.5541 20.5595 16.7525 20.2974L17.2594 19.6281C17.3904 19.6595 17.5228 19.6851 17.6566 19.7051L17.8188 20.5043C17.8751 20.7818 18.1415 20.976 18.4412 20.976C18.4794 20.976 18.5181 20.9729 18.5569 20.9664L20.1773 20.6946C20.3426 20.6669 20.489 20.5806 20.5842 20.4548C20.6795 20.3289 20.716 20.1739 20.6855 20.0236L20.5233 19.2244C20.6404 19.1624 20.7541 19.0954 20.8642 19.0236L21.6003 19.4844C21.7388 19.5711 21.9093 19.6042 22.0747 19.5765C22.24 19.5488 22.3863 19.4625 22.4816 19.3366L23.4161 18.1027C23.6145 17.8407 23.5418 17.4821 23.2536 17.3016L22.5173 16.8407C22.5519 16.7217 22.5801 16.6013 22.602 16.4798L23.4811 16.3322ZM21.9066 15.4248C21.616 15.4735 21.4011 15.6983 21.3884 15.9665C21.3739 16.2732 21.3034 16.5734 21.179 16.8589C21.0701 17.1085 21.1654 17.3934 21.4087 17.5457L22.0129 17.9239L21.7972 18.2088L21.1931 17.8306C20.9496 17.6783 20.6229 17.6991 20.4053 17.8806C20.1564 18.0881 19.873 18.2551 19.563 18.3769C19.2918 18.4834 19.1375 18.7462 19.1911 19.0102L19.3242 19.6662L18.9501 19.729L18.8171 19.073C18.7635 18.8089 18.5163 18.6135 18.2212 18.602C17.8836 18.5887 17.5533 18.5246 17.2394 18.4116C17.1632 18.3842 17.0843 18.371 17.0061 18.371C16.8024 18.371 16.605 18.4607 16.484 18.6204L16.068 19.1697L15.7546 18.9736L16.1706 18.4244C16.3381 18.2032 16.3153 17.9062 16.1156 17.7083C15.8874 17.4819 15.7037 17.2243 15.5696 16.9423C15.4524 16.6959 15.1627 16.5556 14.873 16.6044L14.1514 16.7254L14.0823 16.3854L14.804 16.2644C15.0946 16.2157 15.3095 15.9909 15.3221 15.7226C15.3367 15.4159 15.4071 15.1157 15.5316 14.8301C15.6404 14.5805 15.5451 14.2957 15.3017 14.1433L14.6975 13.7652L14.9133 13.4803L15.5175 13.8585C15.761 14.0109 16.0875 13.9901 16.3052 13.8085C16.5542 13.601 16.8376 13.434 17.1477 13.3121C17.4188 13.2056 17.573 12.9429 17.5194 12.6788L17.3863 12.0229L17.7604 11.9602L17.8935 12.6161C17.9471 12.8803 18.1943 13.0757 18.4895 13.0871C18.8268 13.1004 19.157 13.1644 19.471 13.2775C19.7459 13.3766 20.0591 13.2898 20.2265 13.0687L20.6426 12.5193L20.956 12.7155L20.54 13.2648C20.3724 13.486 20.3952 13.783 20.5949 13.9809C20.8232 14.2072 21.0069 14.4648 21.1409 14.7466C21.2579 14.9931 21.5473 15.1335 21.8375 15.0847L22.5591 14.9637L22.6281 15.3038L21.9066 15.4248Z" fill="#E84949"/>
<path d="M19.6208 14.1734C19.1299 13.8662 18.5365 13.7512 17.9504 13.8494C17.3642 13.9477 16.8552 14.2477 16.5172 14.694C15.8193 15.6153 16.0762 16.8811 17.0897 17.5154C17.4753 17.7568 17.9158 17.8725 18.3519 17.8725C19.0621 17.8725 19.761 17.5657 20.1934 16.9949C20.8911 16.0735 20.6343 14.8078 19.6208 14.1734ZM19.1495 16.3415C18.848 16.7395 18.2464 16.8405 17.8086 16.5664C17.3707 16.2924 17.2596 15.7454 17.5611 15.3474C17.5612 15.3473 17.5612 15.3473 17.5612 15.3473C17.7071 15.1545 17.9271 15.0249 18.1804 14.9825C18.2393 14.9726 18.2986 14.9677 18.3573 14.9677C18.5507 14.9677 18.7394 15.0207 18.9021 15.1225C19.34 15.3966 19.451 15.9434 19.1495 16.3415Z" fill="#E84949"/>
</svg>
