<svg width="31" height="31" viewBox="0 0 31 31" fill="none" xmlns="http://www.w3.org/2000/svg">
<g clip-path="url(#clip0_401_217)">
<path d="M15.5828 0.812302C7.29993 0.812302 0.583313 7.55408 0.583313 15.8728C0.583313 22.5255 4.88057 28.1704 10.8433 30.1615C11.5928 30.3004 11.8662 29.8354 11.8662 29.4357C11.8662 29.0786 11.8532 28.1317 11.8459 26.8746C7.67251 27.7857 6.79235 24.8559 6.79235 24.8559C6.11105 23.1159 5.12783 22.6538 5.12783 22.6538C3.76525 21.7189 5.23041 21.7368 5.23041 21.7368C6.73525 21.8428 7.52735 23.2896 7.52735 23.2896C8.8667 25.5908 11.0393 24.9255 11.8938 24.5399C12.0288 23.5673 12.4173 22.9029 12.8456 22.527C9.51557 22.1462 6.01428 20.8552 6.01428 15.085C6.01428 13.4413 6.59831 12.0967 7.55783 11.0428C7.40251 10.662 6.88815 9.13149 7.70396 7.05859C7.70396 7.05859 8.96396 6.65408 11.829 8.60214C13.0256 8.26827 14.3088 8.10133 15.5848 8.09456C16.8578 8.10133 18.142 8.26779 19.3406 8.60214C22.2031 6.65408 23.4612 7.05859 23.4612 7.05859C24.279 9.13149 23.7646 10.662 23.6098 11.0428C24.5717 12.0967 25.1523 13.4409 25.1523 15.085C25.1523 20.8697 21.6452 22.1423 18.3036 22.5159C18.8422 22.9809 19.3217 23.8992 19.3217 25.3049C19.3217 27.3188 19.3038 28.9417 19.3038 29.4357C19.3038 29.8392 19.5743 30.3081 20.3349 30.1596C26.2899 28.1646 30.5833 22.5236 30.5833 15.8728C30.5833 7.55408 23.8667 0.812302 15.5828 0.812302Z" fill="white"/>
<path d="M15.5828 0.812302C7.29993 0.812302 0.583313 7.55408 0.583313 15.8728C0.583313 22.5255 4.88057 28.1704 10.8433 30.1615C11.5928 30.3004 11.8662 29.8354 11.8662 29.4357C11.8662 29.0786 11.8532 28.1317 11.8459 26.8746C7.67251 27.7857 6.79235 24.8559 6.79235 24.8559C6.11105 23.1159 5.12783 22.6538 5.12783 22.6538C3.76525 21.7189 5.23041 21.7368 5.23041 21.7368C6.73525 21.8428 7.52735 23.2896 7.52735 23.2896C8.8667 25.5908 11.0393 24.9255 11.8938 24.5399C12.0288 23.5673 12.4173 22.9029 12.8456 22.527C9.51557 22.1462 6.01428 20.8552 6.01428 15.085C6.01428 13.4413 6.59831 12.0967 7.55783 11.0428C7.40251 10.662 6.88815 9.13149 7.70396 7.05859C7.70396 7.05859 8.96396 6.65408 11.829 8.60214C13.0256 8.26827 14.3088 8.10133 15.5848 8.09456C16.8578 8.10133 18.142 8.26779 19.3406 8.60214C22.2031 6.65408 23.4612 7.05859 23.4612 7.05859C24.279 9.13149 23.7646 10.662 23.6098 11.0428C24.5717 12.0967 25.1523 13.4409 25.1523 15.085C25.1523 20.8697 21.6452 22.1423 18.3036 22.5159C18.8422 22.9809 19.3217 23.8992 19.3217 25.3049C19.3217 27.3188 19.3038 28.9417 19.3038 29.4357C19.3038 29.8392 19.5743 30.3081 20.3349 30.1596C26.2899 28.1646 30.5833 22.5236 30.5833 15.8728C30.5833 7.55408 23.8667 0.812302 15.5828 0.812302Z" fill="white"/>
<path d="M23.4762 7.10062C24.2703 9.15126 23.7636 10.6648 23.6093 11.0427C24.5712 12.0966 25.1519 13.4408 25.1519 15.085C25.1519 20.8697 21.6448 22.1422 18.3032 22.5158C18.8417 22.9808 19.3212 23.8992 19.3212 25.3048C19.3212 27.3187 19.3033 28.9416 19.3033 29.4356C19.3033 29.8392 19.5738 30.308 20.3345 30.1595C26.2899 28.1645 30.5833 22.5235 30.5833 15.8727C30.5833 14.0848 30.2717 12.3709 29.7022 10.78C27.6341 8.60255 25.3324 7.15239 23.4762 7.10062Z" fill="white"/>
<path d="M12.2553 23.3219C12.4236 22.9823 12.6293 22.7181 12.8456 22.5269C11.0204 22.3179 9.1459 21.8307 7.82251 20.486C8.84057 22.1805 10.4983 22.9513 12.2553 23.3219Z" fill="white"/>
<path d="M1.36428 16.8879C1.36428 8.56924 8.08089 1.82746 16.3638 1.82746C20.963 1.82746 25.0769 3.90762 27.8277 7.17956C25.1107 3.32795 20.6407 0.812302 15.5828 0.812302C7.29993 0.812302 0.583313 7.55408 0.583313 15.8728C0.583313 19.5817 1.92122 22.975 4.13686 25.5981C2.39444 23.1386 1.36428 20.1357 1.36428 16.8879Z" fill="white"/>
<path d="M20.1022 26.3205C20.1022 24.9154 19.6227 23.9955 19.0841 23.5305C22.4257 23.158 25.9333 21.8844 25.9333 16.1002C25.9333 14.456 25.3527 13.1123 24.3898 12.0584C24.5456 11.6776 25.0609 10.1467 24.2412 8.07425C24.2412 8.07425 24.0854 8.02634 23.7636 8.04473C24.1149 9.60763 23.7385 10.7254 23.6093 11.0428C24.5712 12.0967 25.1519 13.4409 25.1519 15.0851C25.1519 20.8697 21.6448 22.1423 18.3031 22.5159C18.8417 22.9809 19.3212 23.8992 19.3212 25.3049C19.3212 27.3188 19.3033 28.9417 19.3033 29.4357C19.3033 29.7909 19.5148 30.1959 20.0848 30.1862C20.0886 29.5054 20.1022 28.06 20.1022 26.3205Z" fill="white"/>
<path d="M7.68799 26.1449C8.00299 26.7932 9.0617 28.3465 11.8546 28.0194C11.8507 27.6777 11.8478 27.295 11.8459 26.8745C9.69121 27.3448 8.41912 26.7903 7.68799 26.1449Z" fill="white"/>
<path d="M8.22654 24.1726C8.13025 24.0274 7.94976 23.7811 7.68799 23.5348C7.85783 23.7869 8.03831 23.9984 8.22654 24.1726Z" fill="white"/>
</g>
<defs>
<clipPath id="clip0_401_217">
<rect width="30" height="30" fill="white" transform="translate(0.583313 0.5)"/>
</clipPath>
</defs>
</svg>
