<svg width="31" height="30" viewBox="0 0 31 30" fill="none" xmlns="http://www.w3.org/2000/svg">
<g clip-path="url(#clip0_401_209)">
<path d="M30.4167 6.19561V23.8043C30.4167 25.4282 29.1058 26.7391 27.4819 26.7391H3.35147C1.72755 26.7391 0.416687 25.4282 0.416687 23.8043V6.19561C0.416687 6.14346 0.416687 6.09125 0.423191 6.0391C0.501472 4.5391 1.69491 3.34561 3.19491 3.26738C3.24706 3.26088 3.29927 3.26088 3.35141 3.26088H27.4818C27.534 3.26088 27.5927 3.26088 27.6449 3.26738C29.1384 3.34566 30.3318 4.5391 30.4101 6.0326C30.4167 6.08475 30.4167 6.14346 30.4167 6.19561Z" fill="white"/>
<path d="M27.645 3.26732C27.5927 3.26082 27.5342 3.26082 27.4819 3.26082H15.4167V26.7391H27.4819C29.1058 26.7391 30.4167 25.4282 30.4167 23.8043V6.1956C30.4167 6.14345 30.4167 6.08474 30.4102 6.03254C30.3319 4.5391 29.1384 3.3456 27.645 3.26732Z" fill="white"/>
<path d="M30.4102 6.03267C30.3319 4.53917 29.1385 3.34573 27.645 3.26745C22.8517 8.06072 20.1599 10.7525 15.4167 15.4957C13.6173 13.6953 4.96415 5.03663 3.19497 3.2674C1.69497 3.34568 0.501472 4.53911 0.42325 6.03911C0.416687 6.09132 0.416687 6.14353 0.416687 6.19568V23.8044C0.416687 25.4283 1.72755 26.7392 3.35147 26.7392H4.32975V9.94568L14.0341 19.6435C14.4124 20.0283 14.9145 20.2175 15.4167 20.2175C15.9189 20.2175 16.4211 20.0283 16.7994 19.6435L26.5037 9.93917V26.7392H27.482C29.1059 26.7392 30.4168 25.4283 30.4168 23.8044V6.19568C30.4167 6.14353 30.4167 6.08482 30.4102 6.03267Z" fill="#303030" fill-opacity="0.57"/>
<path d="M16.7993 19.6435L26.5036 9.93917V26.7392H27.4819C29.1058 26.7392 30.4167 25.4283 30.4167 23.8044V6.19568C30.4167 6.14353 30.4167 6.08482 30.4102 6.03261C30.3319 4.53911 29.1385 3.34568 27.645 3.2674C22.8517 8.06072 20.1599 10.7525 15.4167 15.4957V20.2174C15.9188 20.2174 16.421 20.0283 16.7993 19.6435Z" fill="#303030" fill-opacity="0.57"/>
</g>
<defs>
<clipPath id="clip0_401_209">
<rect width="30" height="30" fill="white" transform="translate(0.416687)"/>
</clipPath>
</defs>
</svg>
