<svg width="32" height="24" viewBox="0 0 32 24" fill="none" xmlns="http://www.w3.org/2000/svg">
<path d="M0.999974 2.43744H30.9999C31.552 2.43744 31.9999 1.8914 31.9999 1.21872C31.9999 0.545942 31.5519 0 30.9999 0H0.999974C0.448035 0 0 0.545942 0 1.21872C0 1.8915 0.448035 2.43744 0.999974 2.43744Z" fill="#E84949"/>
<path d="M30.9999 10.4375H0.999974C0.447952 10.4375 0 10.9835 0 11.6562C0 12.3289 0.448035 12.8749 0.999974 12.8749H30.9999C31.552 12.8749 31.9999 12.3289 31.9999 11.6562C31.9999 10.9835 31.552 10.4375 30.9999 10.4375Z" fill="#E84949"/>
<path d="M30.9999 20.875H0.999974C0.447952 20.875 0 21.421 0 22.0937C0 22.7665 0.448035 23.3124 0.999974 23.3124H30.9999C31.552 23.3124 31.9999 22.7664 31.9999 22.0937C32 21.4209 31.552 20.875 30.9999 20.875Z" fill="#E84949"/>
</svg>
