<svg width="31" height="30" viewBox="0 0 31 30" fill="none" xmlns="http://www.w3.org/2000/svg">
<g clip-path="url(#clip0_401_198)">
<path d="M27.7029 0H3.13043C1.63169 0 0.416687 1.215 0.416687 2.71374V27.2862C0.416687 28.785 1.63169 30 3.13043 30H27.7029C29.2017 30 30.4167 28.785 30.4167 27.2862V2.71374C30.4167 1.215 29.2017 0 27.7029 0ZM9.69996 25.904C9.69996 26.3402 9.3464 26.6937 8.91022 26.6937H5.54849C5.11232 26.6937 4.75876 26.3402 4.75876 25.904V11.8118C4.75876 11.3756 5.11232 11.022 5.54849 11.022H8.91022C9.3464 11.022 9.69996 11.3756 9.69996 11.8118V25.904ZM7.22936 9.69361C5.46556 9.69361 4.03569 8.26374 4.03569 6.49995C4.03569 4.73615 5.46556 3.30628 7.22936 3.30628C8.99315 3.30628 10.423 4.73615 10.423 6.49995C10.423 8.26374 8.99323 9.69361 7.22936 9.69361ZM27.2683 25.9676C27.2683 26.3686 26.9431 26.6937 26.5421 26.6937H22.9347C22.5338 26.6937 22.2086 26.3686 22.2086 25.9676V19.3575C22.2086 18.3715 22.4979 15.0365 19.6317 15.0365C17.4085 15.0365 16.9575 17.3192 16.867 18.3436V25.9676C16.867 26.3686 16.5419 26.6937 16.1408 26.6937H12.6519C12.2509 26.6937 11.9258 26.3686 11.9258 25.9676V11.7481C11.9258 11.3471 12.2509 11.022 12.6519 11.022H16.1408C16.5418 11.022 16.867 11.3471 16.867 11.7481V12.9776C17.6913 11.7404 18.9165 10.7855 21.525 10.7855C27.3013 10.7855 27.2683 16.1821 27.2683 19.1472V25.9676Z" fill="white"/>
</g>
<defs>
<clipPath id="clip0_401_198">
<rect width="30" height="30" fill="white" transform="translate(0.416687)"/>
</clipPath>
</defs>
</svg>
