<svg width="508" height="345" viewBox="0 0 508 345" fill="none" xmlns="http://www.w3.org/2000/svg">
<g clip-path="url(#clip0_401_108)">
<path d="M438.406 334.017L332.261 334.377C304.101 325.707 281.029 295.593 280.883 250.443C280.855 243.641 281.357 236.848 282.383 230.128L367.878 210.447L433.832 195.265C438.692 199.724 443.22 204.549 447.38 209.699L384.313 243.822L354.561 259.92L387.993 248.102L457.382 223.572C461.71 230.352 465.565 237.435 468.921 244.77L447.984 266.941L471.668 251.053C471.77 251.297 471.87 251.541 471.971 251.785C486.981 288.298 468.357 333.915 438.406 334.017Z" fill="#DEDDDD"/>
<path d="M420.962 185.046C404.911 189.77 385.176 195.738 364.886 201.942C335.549 210.913 305.051 220.381 282.848 227.303L282.863 227.221C283.684 222.365 285.613 217.776 288.494 213.829C304.941 191.917 325.884 176.609 349.193 170.924H349.195C355.75 169.322 362.463 168.502 369.201 168.479C387.745 168.416 405.311 174.376 420.962 185.046Z" fill="#DEDDDD"/>
<path d="M117.113 265.753L98.7613 322.072L94.2555 335.909C92.0863 339.267 89.5007 342.323 86.5638 345H86.1331C63.0115 345 42.0154 343.781 26.5438 341.802L28.6972 324.886L33.3187 288.605L39.2276 242.141C42.7207 239.808 46.3783 237.745 50.1702 235.968L55.3799 284.159L57.8388 306.893L58.552 282.55L60.0292 232.025C64.6879 230.481 69.4523 229.295 74.2829 228.476L82.0209 246.554L78.3626 227.868C78.52 227.849 78.6775 227.826 78.8349 227.807C102.327 224.907 123.559 245.956 117.113 265.753Z" fill="#DEDDDD"/>
<path d="M30.7717 248.68C29.9011 260.187 28.924 274.36 27.9515 288.951C27.1365 301.217 26.3308 313.773 25.6037 325.275C25.2425 331.012 24.8998 336.487 24.5896 341.536C21.9593 341.18 19.5003 340.796 17.2359 340.397C15.0019 336.333 13.0924 332.089 11.5261 327.709C7.54356 316.572 6.02003 304.895 7.35833 293.36V293.355C7.89641 288.704 8.89883 284.121 10.3498 279.68C14.3064 267.649 21.3624 256.939 30.7717 248.68Z" fill="#DEDDDD"/>
<path d="M172.266 333.474C172.266 339.823 133.932 344.967 86.5638 345H86.1331C63.0114 345 42.0154 343.78 26.5438 341.802C25.8816 341.712 25.2287 341.626 24.5896 341.536C21.9593 341.18 19.5003 340.796 17.2359 340.397C6.41367 338.466 0 336.07 0 333.474C0 331.372 4.19551 329.408 11.5261 327.709C15.3974 326.812 20.1394 325.996 25.6038 325.275C26.6087 325.137 27.6398 325.007 28.6971 324.886C43.9371 323.059 64.0673 321.948 86.1331 321.948C90.4212 321.948 94.6399 321.991 98.7613 322.072C140.341 322.888 172.266 327.68 172.266 333.474Z" fill="#3F3D56"/>
<path d="M69.4291 232.574L71.5933 249.871C71.5933 249.871 72.459 255.637 73.3246 258.742C73.3246 258.742 72.459 275.152 79.3844 286.683L83.7128 295.11L84.5784 307.529L95.3994 308.859L93.2352 290.232C93.2352 290.232 92.3696 281.361 93.2352 277.813C94.1009 274.265 88.9068 257.855 88.9068 257.855C88.9068 257.855 95.8323 234.792 90.6382 229.026C85.4441 223.26 69.4291 232.574 69.4291 232.574Z" fill="#DAAB85"/>
<path d="M88.474 303.981C88.474 303.981 83.7128 303.981 83.2799 305.311C82.8471 306.642 75.9217 318.617 75.9217 318.617C75.9217 318.617 69.8619 328.374 78.5187 328.818C87.1755 329.261 89.7725 325.269 89.7725 325.269C89.7725 325.269 97.5636 312.407 97.9964 310.19C98.4293 307.972 94.7442 303.22 94.7442 303.22C94.7442 303.22 89.7725 306.642 88.474 303.981Z" fill="#2F2E41"/>
<path d="M94.5338 86.6568C102.661 86.6568 109.25 79.9055 109.25 71.5772C109.25 63.249 102.661 56.4976 94.5338 56.4976C86.4061 56.4976 79.8173 63.249 79.8173 71.5772C79.8173 79.9055 86.4061 86.6568 94.5338 86.6568Z" fill="#DAAB85"/>
<path d="M82.6307 76.2341C82.6307 76.2341 82.6307 92.6443 77.0038 93.9748C71.3769 95.3054 84.7949 110.385 92.1531 108.611C99.5114 106.837 102.541 94.8619 102.541 94.8619C102.541 94.8619 96.0487 86.435 98.6457 81.9999C101.243 77.5647 82.6307 76.2341 82.6307 76.2341Z" fill="#DAAB85"/>
<path d="M88.9068 99.0754C86.8408 99.009 84.8202 98.4372 83.0138 97.4077C81.2074 96.3781 79.6676 94.9207 78.5228 93.1572C78.5228 93.1572 72.459 94.1967 71.5933 94.6402C70.7276 95.0837 55.5783 99.9624 52.1155 110.163L65.9664 128.348C65.9664 128.348 62.9365 154.072 65.9664 165.603C67.7706 172.51 67.3145 179.833 64.6679 186.448C64.6679 186.448 63.3694 186.892 65.5336 187.779C67.6977 188.666 117.474 178.465 118.34 175.804C119.206 173.143 117.474 173.143 118.773 171.812C120.071 170.482 123.534 162.498 120.071 159.837C116.609 157.176 114.444 127.904 114.444 127.904L123.534 104.398C123.534 104.398 106.921 90.7934 100.944 92.495C100.944 92.495 99.7278 99.0754 88.9068 99.0754Z" fill="#D0CDE6"/>
<path d="M94.5337 223.704C94.5337 223.704 93.6681 243.219 95.3994 250.758C97.1308 258.298 97.1308 261.403 97.1308 261.403C97.1308 261.403 94.5337 274.265 95.8323 286.24C97.1308 298.215 94.3173 317.517 94.3173 317.517L104.922 320.834L111.414 287.127C111.414 287.127 116.609 266.282 113.579 256.524C113.579 256.524 115.31 226.808 116.609 223.704C117.907 220.599 94.5337 223.704 94.5337 223.704Z" fill="#DAAB85"/>
<path d="M82.9192 74.2629C83.1143 72.8485 83.5269 71.3055 84.704 70.54C85.926 69.7454 87.5034 70.0713 88.9468 70.1795C90.3903 70.2877 92.159 69.9177 92.6335 68.5167C92.9293 67.6431 92.6096 66.5991 93.0712 65.8045C93.8056 64.5399 96.048 64.6843 96.4348 63.2671C96.5573 62.8182 96.4382 62.3172 96.6151 61.8878C96.8536 61.3085 97.5233 61.0776 98.1211 60.9357C100.307 60.4176 102.552 60.2148 104.793 60.3333C105.012 60.3735 105.238 60.3277 105.426 60.2049C105.525 60.1044 105.595 59.9785 105.63 59.8403C106.137 58.2874 105.6 56.5254 104.592 55.2552C103.521 54.0319 102.2 53.0649 100.723 52.4228C97.4539 50.7981 93.91 49.8331 90.2848 49.5804C87.5239 49.4027 84.6258 49.7106 82.2741 51.2034C81.5771 51.6552 80.9303 52.1835 80.3452 52.7791C77.787 55.4078 76.1191 58.808 75.5865 62.48C75.07 66.1433 75.47 69.881 76.749 73.3425C77.4962 75.4263 78.6747 77.5784 80.4982 78.8625C81.4755 79.5508 82.3182 80.1861 82.724 79.0175C83.1544 77.7782 82.7297 75.6362 82.9192 74.2629Z" fill="#2F2E41"/>
<path d="M66.8321 183.787C66.8321 183.787 60.3395 192.658 61.638 198.867C62.9365 205.076 67.6978 215.277 67.6978 215.277C67.6978 215.277 65.1007 235.235 69.4291 235.235C73.7575 235.235 92.3696 234.348 92.8024 232.131C93.2353 229.913 91.5039 207.737 91.5039 207.737C91.5039 207.737 93.6681 227.252 94.9666 227.252C96.2651 227.252 118.773 229.47 119.638 228.139C120.504 226.808 122.235 192.658 122.235 192.658C122.235 192.658 124.596 176.551 117.14 174.404C109.683 172.256 66.8321 183.787 66.8321 183.787Z" fill="#2F2E41"/>
<path d="M101.459 317.286C101.459 317.286 93.6681 312.851 93.2353 316.399C92.8024 319.947 88.0412 332.809 88.0412 332.809C88.0412 332.809 83.28 343.01 93.6681 343.454C104.056 343.897 106.653 339.018 106.653 336.801C106.653 334.583 105.489 319.369 105.489 319.369L101.459 317.286Z" fill="#2F2E41"/>
<path d="M128.295 128.348L130.459 147.862C130.459 147.862 133.056 158.507 131.325 162.942C129.594 167.377 123.101 187.779 123.101 187.779C123.101 187.779 121.37 176.691 117.041 175.36L119.638 150.08C119.638 150.08 113.441 134.304 114.809 132.213C116.176 130.122 128.295 128.348 128.295 128.348Z" fill="#DAAB85"/>
<path d="M51.2499 129.678L52.1156 147.419C52.1156 147.419 49.0857 162.942 55.1454 179.352L56.0111 186.448L61.638 197.536C61.638 197.536 62.9365 186.892 65.5336 186.892C65.5336 186.892 62.9365 179.796 63.8022 175.804C64.6679 171.812 63.3694 150.523 63.3694 150.523L65.5336 133.301L51.2499 129.678Z" fill="#DAAB85"/>
<path d="M118.773 103.954H123.534C123.534 103.954 134.788 130.565 130.459 131.009C126.131 131.452 112.28 135 111.847 133.226C111.414 131.452 118.773 103.954 118.773 103.954Z" fill="#D0CDE6"/>
<path d="M56.0111 106.172L52.1156 110.163C52.1156 110.163 46.9215 130.122 50.817 132.339C54.7126 134.557 69.4291 137.218 70.2948 135.444C71.1605 133.67 56.0111 106.172 56.0111 106.172Z" fill="#D0CDE6"/>
<path d="M366.334 13.8224V321.397C366.331 325.061 364.908 328.574 362.379 331.164C359.85 333.754 356.421 335.209 352.845 335.21H230.985C229.214 335.213 227.459 334.858 225.821 334.165C224.184 333.472 222.696 332.455 221.443 331.172C220.19 329.889 219.196 328.365 218.519 326.688C217.841 325.01 217.494 323.212 217.496 321.397V13.8224C217.495 12.0072 217.844 10.2097 218.522 8.53265C219.2 6.85557 220.194 5.33174 221.446 4.04819C222.699 2.76463 224.186 1.74649 225.823 1.05191C227.459 0.357322 229.214 -9.53694e-05 230.985 6.16837e-05H249.221V2.39632C249.221 5.41468 250.391 8.30959 252.473 10.4443C254.556 12.5791 257.38 13.7788 260.326 13.7797H322.305C324.676 13.7849 326.985 13.0061 328.89 11.559C329.275 11.2721 329.64 10.9581 329.983 10.6195C331.067 9.55805 331.931 8.28184 332.52 6.8683C333.109 5.45476 333.411 3.93334 333.409 2.39632V6.16837e-05H352.845C354.617 -0.00049445 356.371 0.356651 358.008 1.05109C359.645 1.74553 361.132 2.76366 362.385 4.04729C363.637 5.33092 364.631 6.85491 365.309 8.53216C365.986 10.2094 366.335 12.0071 366.334 13.8224Z" fill="#3F3D56"/>
<path opacity="0.1" d="M308.875 130.794C328.057 130.794 343.606 127.607 343.606 123.676C343.606 119.745 328.057 116.559 308.875 116.559C289.694 116.559 274.144 119.745 274.144 123.676C274.144 127.607 289.694 130.794 308.875 130.794Z" fill="black"/>
<path opacity="0.1" d="M258.399 167.331C277.581 167.331 293.13 164.144 293.13 160.213C293.13 156.282 277.581 153.096 258.399 153.096C239.218 153.096 223.668 156.282 223.668 160.213C223.668 164.144 239.218 167.331 258.399 167.331Z" fill="black"/>
<path opacity="0.1" d="M287.11 234.236C306.292 234.236 321.841 231.049 321.841 227.118C321.841 223.188 306.292 220.001 287.11 220.001C267.929 220.001 252.379 223.188 252.379 227.118C252.379 231.049 267.929 234.236 287.11 234.236Z" fill="black"/>
<path opacity="0.1" d="M277.386 306.835C296.567 306.835 312.117 303.649 312.117 299.718C312.117 295.787 296.567 292.6 277.386 292.6C258.204 292.6 242.655 295.787 242.655 299.718C242.655 303.649 258.204 306.835 277.386 306.835Z" fill="black"/>
<path d="M398.018 191.461H292.436V202.032V218.13V227.188L301.275 218.13H398.018V191.461Z" fill="#6C63FF"/>
<path d="M146.334 123.37H251.916V133.941V150.039V159.097L243.077 150.039H146.334V123.37Z" fill="#6C63FF"/>
<path d="M375.389 197.936H315.991V202.871H375.389V197.936Z" fill="white"/>
<path d="M375.389 205.339H315.991V210.273H375.389V205.339Z" fill="white"/>
<path d="M223.73 130.319H164.332V135.254H223.73V130.319Z" fill="white"/>
<path d="M223.73 137.722H164.332V142.656H223.73V137.722Z" fill="white"/>
<path d="M508 56.2963H308.875V76.2332V106.594V123.676L325.546 106.594H508V56.2963Z" fill="#6C63FF"/>
<path d="M476.974 67.6845H339.902V79.0726H476.974V67.6845Z" fill="white"/>
<path d="M476.974 84.7667H339.902V96.1549H476.974V84.7667Z" fill="white"/>
<path d="M264.808 285.487C269.877 295.119 280.634 299.253 280.634 299.253C280.634 299.253 283.174 287.772 278.105 278.14C273.037 268.509 262.279 264.374 262.279 264.374C262.279 264.374 259.74 275.855 264.808 285.487Z" fill="white"/>
<path d="M268.292 282.318C277.443 287.959 280.967 299.164 280.967 299.164C280.967 299.164 269.655 301.223 260.504 295.582C251.354 289.941 247.829 278.736 247.829 278.736C247.829 278.736 259.141 276.677 268.292 282.318Z" fill="#6C63FF"/>
</g>
<defs>
<clipPath id="clip0_401_108">
<rect width="508" height="345" fill="white"/>
</clipPath>
</defs>
</svg>
