<svg width="251" height="160" viewBox="0 0 251 160" fill="none" xmlns="http://www.w3.org/2000/svg">
<g clip-path="url(#clip0_16_555)">
<path d="M216.614 154.059L164.168 154.226C150.255 150.227 138.855 136.337 138.783 115.512C138.769 112.375 139.017 109.242 139.524 106.143L181.766 97.065L214.354 90.0626C216.755 92.1195 218.993 94.3448 221.048 96.7201L189.887 112.459L175.187 119.884L191.705 114.433L225.99 103.119C228.128 106.246 230.033 109.513 231.691 112.896L221.347 123.122L233.049 115.794C233.099 115.906 233.148 116.019 233.198 116.131C240.614 132.972 231.413 154.013 216.614 154.059Z" fill="#F2F2F2"/>
<path d="M207.995 85.3492C200.064 87.528 190.313 90.2808 180.288 93.1421C165.793 97.2802 150.724 101.647 139.754 104.839L139.761 104.802C140.166 102.562 141.12 100.445 142.543 98.6248C150.67 88.5182 161.018 81.4579 172.534 78.836H172.535C175.774 78.0971 179.091 77.7185 182.42 77.7079C191.583 77.6789 200.262 80.4278 207.995 85.3492Z" fill="#F2F2F2"/>
<path d="M57.865 122.574L48.7974 148.55L46.5711 154.932C45.4993 156.481 44.2218 157.891 42.7706 159.125H42.5578C31.1336 159.125 20.7595 158.563 13.1151 157.65L14.1791 149.848L16.4625 133.114L19.3821 111.684C21.108 110.607 22.9152 109.656 24.7888 108.836L27.3629 131.063L28.5778 141.549L28.9302 130.321L29.6601 107.017C31.9619 106.305 34.3159 105.758 36.7027 105.38L40.5261 113.719L38.7185 105.1C38.7963 105.092 38.8741 105.081 38.9519 105.072C50.5592 103.735 61.0499 113.443 57.865 122.574Z" fill="#F2F2F2"/>
<path d="M15.2041 114.699C14.774 120.007 14.2912 126.544 13.8107 133.274C13.408 138.931 13.0099 144.722 12.6507 150.027C12.4722 152.673 12.3029 155.199 12.1496 157.528C10.85 157.364 9.635 157.186 8.51614 157.002C7.41234 155.128 6.46887 153.17 5.69496 151.15C3.72723 146.014 2.97446 140.627 3.63571 135.307V135.305C3.90157 133.16 4.39686 131.046 5.1138 128.997C7.0687 123.449 10.5551 118.509 15.2041 114.699Z" fill="#F2F2F2"/>
<path d="M85.1158 153.809C85.1158 156.738 66.1752 159.11 42.7707 159.125H42.5579C31.1336 159.125 20.7596 158.563 13.1151 157.65C12.788 157.609 12.4653 157.569 12.1496 157.528C10.85 157.364 9.63501 157.186 8.51615 157.002C3.16896 156.112 0 155.007 0 153.809C0 152.84 2.07298 151.934 5.69498 151.15C7.60779 150.737 9.95077 150.36 12.6507 150.028C13.1472 149.964 13.6567 149.904 14.1791 149.848C21.7091 149.005 31.6553 148.493 42.5579 148.493C44.6766 148.493 46.761 148.513 48.7974 148.55C69.3419 148.927 85.1158 151.137 85.1158 153.809Z" fill="#3F3D56"/>
<path d="M34.3045 107.271L35.3738 115.249C35.3738 115.249 35.8015 117.908 36.2293 119.34C36.2293 119.34 35.8015 126.909 39.2234 132.228L41.362 136.114L41.7897 141.842L47.1363 142.456L46.067 133.864C46.067 133.864 45.6393 129.773 46.067 128.136C46.4947 126.5 43.9284 118.931 43.9284 118.931C43.9284 118.931 47.3502 108.294 44.7838 105.634C42.2175 102.975 34.3045 107.271 34.3045 107.271Z" fill="#DAAB85"/>
<path d="M43.7145 140.206C43.7145 140.206 41.362 140.206 41.1482 140.82C40.9343 141.433 37.5125 146.957 37.5125 146.957C37.5125 146.957 34.5184 151.457 38.7957 151.662C43.0729 151.866 44.3561 150.025 44.3561 150.025C44.3561 150.025 48.2056 144.093 48.4195 143.07C48.6334 142.047 46.8126 139.855 46.8126 139.855C46.8126 139.855 44.3561 141.433 43.7145 140.206Z" fill="#2F2E41"/>
<path d="M46.7086 39.9689C50.7245 39.9689 53.98 36.855 53.98 33.0137C53.98 29.1725 50.7245 26.0585 46.7086 26.0585C42.6928 26.0585 39.4373 29.1725 39.4373 33.0137C39.4373 36.855 42.6928 39.9689 46.7086 39.9689Z" fill="#DAAB85"/>
<path d="M40.8273 35.1617C40.8273 35.1617 40.8273 42.7306 38.0471 43.3443C35.2669 43.958 41.8967 50.9132 45.5323 50.095C49.168 49.2767 50.6651 43.7535 50.6651 43.7535C50.6651 43.7535 47.4571 39.8667 48.7403 37.8211C50.0235 35.7754 40.8273 35.1617 40.8273 35.1617Z" fill="#DAAB85"/>
<path d="M43.9284 45.6969C42.9076 45.6663 41.9093 45.4026 41.0167 44.9277C40.1242 44.4528 39.3634 43.7806 38.7978 42.9672C38.7978 42.9672 35.8016 43.4467 35.3739 43.6512C34.9462 43.8558 27.461 46.106 25.7501 50.811L32.5937 59.1982C32.5937 59.1982 31.0966 71.063 32.5937 76.3816C33.4851 79.5673 33.2598 82.9448 31.9521 85.9962C31.9521 85.9962 31.3105 86.2008 32.3798 86.6099C33.4491 87.019 58.0434 82.314 58.4711 81.0866C58.8989 79.8592 58.0434 79.8592 58.685 79.2455C59.3266 78.6318 61.0375 74.9497 59.3266 73.7223C57.6157 72.4949 56.5464 58.9936 56.5464 58.9936L61.0375 48.1517C61.0375 48.1517 52.8294 41.877 49.8759 42.6618C49.8759 42.6618 49.275 45.6969 43.9284 45.6969Z" fill="#D0CDE1"/>
<path d="M46.7086 103.18C46.7086 103.18 46.2809 112.18 47.1363 115.658C47.9918 119.136 47.9918 120.568 47.9918 120.568C47.9918 120.568 46.7086 126.5 47.3502 132.023C47.9918 137.547 46.6017 146.449 46.6017 146.449L51.8413 147.979L55.0493 132.432C55.0493 132.432 57.6157 122.818 56.1186 118.317C56.1186 118.317 56.9741 104.612 57.6157 103.18C58.2572 101.748 46.7086 103.18 46.7086 103.18Z" fill="#DAAB85"/>
<path d="M40.9699 34.2525C41.0663 33.6001 41.2702 32.8884 41.8518 32.5354C42.4556 32.1688 43.2349 32.3192 43.9481 32.3691C44.6614 32.419 45.5353 32.2483 45.7697 31.6021C45.9159 31.1992 45.7579 30.7177 45.986 30.3512C46.3489 29.7679 47.4568 29.8345 47.6479 29.1808C47.7084 28.9738 47.6496 28.7427 47.737 28.5447C47.8548 28.2775 48.1857 28.171 48.4811 28.1055C49.561 27.8666 50.6706 27.773 51.7776 27.8277C51.8859 27.8462 51.9976 27.8251 52.0904 27.7685C52.1392 27.7221 52.1741 27.664 52.1913 27.6003C52.4418 26.884 52.1765 26.0714 51.6782 25.4855C51.149 24.9213 50.4964 24.4753 49.7669 24.1791C48.1515 23.4298 46.4004 22.9847 44.6092 22.8681C43.2451 22.7861 41.8131 22.9282 40.6512 23.6167C40.3068 23.825 39.9873 24.0687 39.6981 24.3434C38.4341 25.5559 37.61 27.1241 37.3469 28.8178C37.0917 30.5074 37.2893 32.2314 37.9213 33.828C38.2904 34.7891 38.8727 35.7817 39.7737 36.374C40.2566 36.6914 40.673 36.9845 40.8735 36.4454C41.0862 35.8739 40.8763 34.8859 40.9699 34.2525Z" fill="#2F2E41"/>
<path d="M33.0213 84.7687C33.0213 84.7687 29.8134 88.86 30.455 91.724C31.0965 94.5879 33.449 99.2928 33.449 99.2928C33.449 99.2928 32.1659 108.498 34.3045 108.498C36.4431 108.498 45.6393 108.089 45.8531 107.066C46.067 106.043 45.2115 95.8152 45.2115 95.8152C45.2115 95.8152 46.2808 104.816 46.9224 104.816C47.564 104.816 58.6849 105.839 59.1127 105.225C59.5404 104.612 60.3958 88.86 60.3958 88.86C60.3958 88.86 61.5623 81.4313 57.878 80.4407C54.1938 79.4501 33.0213 84.7687 33.0213 84.7687Z" fill="#2F2E41"/>
<path d="M50.1304 146.343C50.1304 146.343 46.2808 144.297 46.067 145.934C45.8531 147.57 43.5006 153.503 43.5006 153.503C43.5006 153.503 41.1481 158.208 46.2808 158.412C51.4136 158.617 52.6967 156.366 52.6967 155.344C52.6967 154.321 52.1215 147.304 52.1215 147.304L50.1304 146.343Z" fill="#2F2E41"/>
<path d="M63.39 59.1981L64.4593 68.199C64.4593 68.199 65.7425 73.1085 64.887 75.1542C64.0316 77.1998 60.8236 86.6098 60.8236 86.6098C60.8236 86.6098 59.9682 81.4957 57.8295 80.882L59.1127 69.2218C59.1127 69.2218 56.0508 61.9455 56.7263 60.9809C57.4018 60.0164 63.39 59.1981 63.39 59.1981Z" fill="#DAAB85"/>
<path d="M25.3223 59.8118L25.75 67.9944C25.75 67.9944 24.2529 75.1541 27.247 82.7231L27.6748 85.9961L30.455 91.1102C30.455 91.1102 31.0966 86.2007 32.3798 86.2007C32.3798 86.2007 31.0966 82.9276 31.5243 81.0865C31.952 79.2454 31.3104 69.4263 31.3104 69.4263L32.3798 61.4829L25.3223 59.8118Z" fill="#DAAB85"/>
<path d="M58.685 47.947H61.0375C61.0375 47.947 66.5979 60.2209 64.4593 60.4255C62.3207 60.63 55.477 62.2666 55.2632 61.4483C55.0493 60.63 58.685 47.947 58.685 47.947Z" fill="#D0CDE1"/>
<path d="M27.6748 48.9698L25.75 50.8109C25.75 50.8109 23.1836 60.0163 25.1084 61.0392C27.0332 62.062 34.3045 63.2894 34.7323 62.4711C35.16 61.6529 27.6748 48.9698 27.6748 48.9698Z" fill="#D0CDE1"/>
<path d="M181.004 6.37534V148.239C181.002 149.929 180.299 151.549 179.05 152.744C177.8 153.938 176.106 154.609 174.339 154.61H114.129C113.253 154.611 112.386 154.448 111.577 154.128C110.768 153.808 110.033 153.339 109.414 152.747C108.795 152.156 108.304 151.453 107.969 150.679C107.634 149.905 107.462 149.076 107.463 148.239V6.37535C107.463 5.53811 107.636 4.70906 107.971 3.93554C108.306 3.16201 108.796 2.45917 109.415 1.86716C110.034 1.27514 110.769 0.805536 111.578 0.485172C112.386 0.164807 113.253 -4.5436e-05 114.129 2.7002e-05H123.139V1.10526C123.139 2.49743 123.717 3.83265 124.746 4.81727C125.775 5.80188 127.17 6.35525 128.626 6.35566H159.249C160.421 6.35805 161.562 5.99884 162.503 5.3314C162.693 5.19904 162.873 5.05425 163.043 4.89806C163.579 4.40848 164.005 3.81986 164.296 3.16788C164.587 2.51591 164.737 1.81418 164.736 1.10526V2.7002e-05H174.339C175.214 -0.000229505 176.081 0.164498 176.89 0.484796C177.699 0.805095 178.433 1.27469 179.052 1.86674C179.671 2.4588 180.162 3.16171 180.497 3.93531C180.832 4.70892 181.004 5.53805 181.004 6.37534Z" fill="#3F3D56"/>
<path opacity="0.1" d="M152.614 60.3264C162.091 60.3264 169.774 58.8566 169.774 57.0435C169.774 55.2304 162.091 53.7606 152.614 53.7606C143.136 53.7606 135.453 55.2304 135.453 57.0435C135.453 58.8566 143.136 60.3264 152.614 60.3264Z" fill="black"/>
<path opacity="0.1" d="M127.674 77.1785C137.151 77.1785 144.834 75.7087 144.834 73.8956C144.834 72.0825 137.151 70.6127 127.674 70.6127C118.196 70.6127 110.513 72.0825 110.513 73.8956C110.513 75.7087 118.196 77.1785 127.674 77.1785Z" fill="black"/>
<path opacity="0.1" d="M141.86 108.037C151.337 108.037 159.02 106.568 159.02 104.755C159.02 102.941 151.337 101.472 141.86 101.472C132.382 101.472 124.699 102.941 124.699 104.755C124.699 106.568 132.382 108.037 141.86 108.037Z" fill="black"/>
<path opacity="0.1" d="M137.055 141.523C146.532 141.523 154.215 140.053 154.215 138.24C154.215 136.427 146.532 134.957 137.055 134.957C127.577 134.957 119.894 136.427 119.894 138.24C119.894 140.053 127.577 141.523 137.055 141.523Z" fill="black"/>
<path d="M196.659 88.3082H144.491V93.1839V100.609V104.787L148.858 100.609H196.659V88.3082Z" fill="#6C63FF"/>
<path d="M72.3026 56.9022H124.47V61.7779V69.2028V73.3806L120.103 69.2028H72.3026V56.9022Z" fill="#6C63FF"/>
<path d="M185.478 91.2948H156.129V93.571H185.478V91.2948Z" fill="white"/>
<path d="M185.478 94.7089H156.129V96.985H185.478V94.7089Z" fill="white"/>
<path d="M110.544 60.1076H81.1956V62.3837H110.544V60.1076Z" fill="white"/>
<path d="M110.544 63.5217H81.1956V65.7979H110.544V63.5217Z" fill="white"/>
<path d="M251 25.9657H152.613V35.1612V49.1646V57.0435L160.85 49.1646H251V25.9657Z" fill="#6C63FF"/>
<path d="M235.67 31.2183H167.943V36.4709H235.67V31.2183Z" fill="white"/>
<path d="M235.67 39.0971H167.943V44.3497H235.67V39.0971Z" fill="white"/>
<path d="M130.84 131.676C133.345 136.118 138.66 138.025 138.66 138.025C138.66 138.025 139.915 132.73 137.41 128.287C134.906 123.845 129.591 121.938 129.591 121.938C129.591 121.938 128.336 127.233 130.84 131.676Z" fill="white"/>
<path d="M132.562 130.214C137.083 132.816 138.824 137.984 138.824 137.984C138.824 137.984 133.235 138.934 128.714 136.332C124.192 133.73 122.451 128.562 122.451 128.562C122.451 128.562 128.04 127.612 132.562 130.214Z" fill="#6C63FF"/>
</g>
<defs>
<clipPath id="clip0_16_555">
<rect width="251" height="159.125" fill="white"/>
</clipPath>
</defs>
</svg>
