<svg width="31" height="31" viewBox="0 0 31 31" fill="none" xmlns="http://www.w3.org/2000/svg">
<g clip-path="url(#clip0_304_49)">
<path d="M1.24466 23.3435C2.51201 23.1888 3.79714 23.3555 5.06449 23.1472C5.70109 23.0461 6.2842 22.8319 6.86135 22.6058C5.43342 21.6896 4.14815 20.6424 2.95233 19.387C2.52395 18.9407 2.83329 18.191 3.45807 18.1733C3.96979 18.197 4.46957 18.1555 4.9574 18.0542C3.7138 16.4775 2.74995 14.7818 2.00029 12.8778C1.79804 12.3661 2.39297 11.8486 2.87496 12.0032C3.15457 12.1162 3.44016 12.1936 3.73172 12.2531C2.84523 10.123 2.66077 7.97512 3.15457 5.61891C3.26764 5.07746 3.9816 4.94661 4.34456 5.30359C7.1886 8.09987 10.7823 9.44459 14.6259 10.0872C14.2867 7.4573 16.1551 4.6609 18.6063 3.74456C20.6412 2.98892 23.3722 3.50661 24.7407 5.22012C25.657 4.64298 26.9243 4.45255 27.9417 4.27406C28.4772 4.18475 28.9949 4.70841 28.6796 5.23791C28.3106 5.85672 27.9596 6.51707 27.5729 7.14783C28.3583 6.91573 29.1675 6.77293 29.9766 6.67181C30.5598 6.59444 30.9108 7.49287 30.4646 7.84985C29.5185 8.60548 28.5784 9.46821 27.5729 10.1584C27.5432 16.8401 25.5916 22.445 19.6239 26.2469C14.6497 29.4243 5.40356 28.8888 1.07811 24.5632H1.07214C0.881702 24.5156 0.780579 24.3728 0.744881 24.2182C0.578332 23.9683 0.69724 23.659 0.917401 23.5399C1.00074 23.4387 1.10783 23.3613 1.24466 23.3435Z" fill="white"/>
</g>
<defs>
<clipPath id="clip0_304_49">
<rect width="30" height="30" fill="white" transform="translate(0.666626 0.843262)"/>
</clipPath>
</defs>
</svg>
