<svg width="31" height="30" viewBox="0 0 31 30" fill="none" xmlns="http://www.w3.org/2000/svg">
<g clip-path="url(#clip0_401_206)">
<path d="M0.994747 22.5003C2.2621 22.3455 3.54723 22.5122 4.81459 22.304C5.45118 22.2029 6.0343 21.9887 6.61144 21.7626C5.18351 20.8463 3.89824 19.7992 2.70242 18.5437C2.27404 18.0975 2.58338 17.3478 3.20817 17.33C3.71988 17.3538 4.21966 17.3122 4.70749 17.211C3.46389 15.6343 2.50004 13.9385 1.75038 12.0346C1.54813 11.5229 2.14306 11.0053 2.62505 11.1599C2.90467 11.273 3.19025 11.3504 3.48181 11.4098C2.59532 9.27974 2.41086 7.13187 2.90467 4.77566C3.01773 4.23422 3.7317 4.10337 4.09465 4.46035C6.93869 7.25662 10.5324 8.60134 14.376 9.24391C14.0368 6.61405 15.9052 3.81765 18.3564 2.90131C20.3913 2.14568 23.1223 2.66336 24.4908 4.37688C25.4071 3.79974 26.6744 3.6093 27.6918 3.43081C28.2273 3.3415 28.745 3.86516 28.4297 4.39466C28.0607 5.01348 27.7097 5.67383 27.323 6.30458C28.1084 6.07248 28.9176 5.92969 29.7267 5.82856C30.3099 5.75119 30.6609 6.64962 30.2147 7.0066C29.2686 7.76224 28.3285 8.62497 27.323 9.31518C27.2933 15.9968 25.3417 21.6017 19.374 25.4036C14.3997 28.581 5.15365 28.0456 0.828199 23.72H0.822228C0.631794 23.6723 0.530671 23.5296 0.494972 23.3749C0.328424 23.1251 0.447332 22.8157 0.667492 22.6967C0.750831 22.5954 0.857926 22.5181 0.994747 22.5003Z" fill="white"/>
</g>
<defs>
<clipPath id="clip0_401_206">
<rect width="30" height="30" fill="white" transform="translate(0.416687)"/>
</clipPath>
</defs>
</svg>
