<svg width="433" height="420" viewBox="0 0 433 420" fill="none" xmlns="http://www.w3.org/2000/svg">
<g clip-path="url(#clip0_805_133)">
<path d="M433 390.257H0V391.472H433V390.257Z" fill="#343D68"/>
<path d="M271.673 182.137C271.673 182.137 252.251 200.554 261.962 204.74C271.673 208.926 277.915 189.671 277.915 189.671L271.673 182.137Z" fill="#E9C1A1"/>
<path d="M272.366 175.44L268.204 183.811C268.204 183.811 275.141 183.811 276.528 196.368L282.077 187.997L272.366 175.44Z" fill="#CFCCE0"/>
<path d="M364.62 366.31L365.314 391.424L356.99 397.284L353.522 394.773L354.215 366.31H364.62Z" fill="#E9C1A1"/>
<path d="M315.372 359.613L316.759 386.402L297.337 396.447L298.724 382.216C298.724 382.216 304.274 371.333 302.886 359.613H315.372Z" fill="#E9C1A1"/>
<path d="M345.198 157.86C345.198 157.86 356.296 193.02 358.377 214.786C360.458 236.552 363.926 294.315 363.926 294.315L370.862 368.821L351.441 372.17L343.117 296.826L324.389 222.32L320.227 296.826L316.759 364.636L298.724 365.473L297.337 295.152L289.707 205.577L293.869 162.883L345.198 157.86Z" fill="#2F2E41"/>
<path d="M355.603 393.099C355.603 393.099 356.74 379.039 365.189 386.906L366.701 385.564L373.637 403.982C373.637 403.982 381.961 418.213 367.394 419.888C352.828 421.562 354.215 403.982 354.215 403.982L352.828 396.447L353.522 391.513L355.603 393.099Z" fill="#2F2E41"/>
<path d="M315.372 376.356C317.079 377.534 318.494 379.242 319.47 381.303C320.446 383.364 320.947 385.702 320.921 388.076C320.921 396.447 320.227 397.284 320.227 397.284L309.823 400.633C309.823 400.633 302.886 399.796 298.724 404.819C294.563 409.842 273.754 413.19 273.754 406.493C273.754 399.796 291.094 388.913 291.094 388.913C291.094 388.913 296.244 378.417 299.912 379.479C303.58 380.541 304.967 382.216 304.967 383.053C304.967 383.89 302.886 389.75 302.886 389.75C302.886 389.75 314.678 386.402 315.372 376.356Z" fill="#2F2E41"/>
<path d="M313.984 54.8902C323.562 54.8902 331.325 45.5201 331.325 33.9615C331.325 22.4028 323.562 13.0327 313.984 13.0327C304.407 13.0327 296.644 22.4028 296.644 33.9615C296.644 45.5201 304.407 54.8902 313.984 54.8902Z" fill="#E9C1A1"/>
<path d="M326.817 39.4028L334.447 60.3316L313.638 96.329C313.638 96.329 312.25 56.983 308.089 50.2858C303.927 43.5886 326.817 39.4028 326.817 39.4028Z" fill="#E9C1A1"/>
<path d="M317.106 82.9347L320.574 72.0519L323.348 72.8888L326.817 69.5401L331.672 51.123L338.608 56.9829L347.626 166.65L291.441 168.324L299.071 92.1433L306.008 70.3775L311.015 62.3888L314.331 74.5631L317.106 82.9347Z" fill="#CFCCE0"/>
<path d="M333.059 129.815L335.182 54.0881C335.182 54.0881 339.302 54.4716 340.689 56.983C342.077 59.4945 364.967 64.5174 364.967 64.5174L360.805 142.372C360.805 142.372 378.146 204.321 371.903 207.67C365.66 211.019 354.562 210.181 354.562 210.181L333.059 129.815Z" fill="#575A89"/>
<path d="M299.418 120.188L306.776 69.1509L290.401 82.5161L294.563 119.351L291.094 144.465C291.094 144.465 277.915 213.949 282.077 216.46C286.239 218.972 291.094 216.46 291.094 216.46L299.418 146.139V120.188Z" fill="#575A89"/>
<path d="M295.256 80.8418L290.401 82.5161L288.32 116.002L284.852 145.302L268.204 181.3C268.204 181.3 276.528 174.603 279.996 193.857L298.33 155.334L295.256 80.8418Z" fill="#575A89"/>
<path d="M349.36 175.44C349.36 175.44 329.938 193.857 339.649 198.043C349.36 202.229 355.603 182.974 355.603 182.974L349.36 175.44Z" fill="#E9C1A1"/>
<path d="M361.152 184.649L354.909 193.857L346.585 176.277L350.053 168.743L361.152 184.649Z" fill="#CFCCE0"/>
<path d="M359.764 67.4475L365.313 64.0989C365.313 64.0989 369.475 70.7961 370.169 76.6561C370.862 82.5162 374.331 90.0505 374.331 94.2363C374.331 98.422 384.042 137.768 384.042 137.768L361.845 192.183C361.845 192.183 356.99 172.091 346.585 170.417L363.926 141.117L354.215 120.188L359.764 67.4475Z" fill="#575A89"/>
<path d="M328.501 14.0208L331.771 12.4408C331.771 12.4408 324.934 3.35589 315.421 4.14592L318.097 0.590901C318.097 0.590901 311.557 -2.56905 305.611 5.72586C302.486 10.0863 298.87 15.2118 296.615 20.9856H293.113L294.575 24.8697L289.459 28.7539L294.71 28.0562C294.397 30.1832 294.349 32.3546 294.567 34.4987C294.793 36.6435 295.7 38.5987 297.097 39.9518C297.097 39.9518 301.152 29.8207 301.152 28.2407V32.1907C301.152 32.1907 304.422 28.6357 304.422 26.2657L306.206 29.0307L307.098 24.6857L318.097 29.0307L316.313 25.4757L323.15 26.6607L320.475 22.3157C320.475 22.3157 328.204 27.4507 328.501 31.7957C328.799 36.1406 331.061 40.2577 331.061 40.2577C331.061 40.2577 337.122 19.9458 328.501 14.0208Z" fill="#2F2E41"/>
<path d="M328.204 33.5429C329.276 33.5429 330.146 32.2311 330.146 30.6129C330.146 28.9947 329.276 27.6829 328.204 27.6829C327.131 27.6829 326.262 28.9947 326.262 30.6129C326.262 32.2311 327.131 33.5429 328.204 33.5429Z" fill="#E9C1A1"/>
<path d="M80.2631 172.541H20.3852V152.291H51.6404L80.2631 172.541Z" fill="#4F47C8"/>
<path d="M20.2207 169.761V228.925H214.66V169.761H20.2207ZM96.0553 218.998H32.8872V210.66H96.0553V218.998ZM201.993 203.512H32.8872V195.174H201.993V203.512ZM201.993 188.027H32.8872V179.688H201.993V188.027Z" fill="#343D68"/>
<path d="M80.2631 76.847H20.3852V56.5962H51.6404L80.2631 76.847Z" fill="#4F47C8"/>
<path d="M20.2207 75.2588V134.422H214.66V75.2588H20.2207ZM96.0553 124.496H32.8872V116.157H96.0553V124.496ZM132.574 109.01H32.8872V100.671H132.574L132.574 109.01ZM201.993 93.5241H32.8873V85.1856H201.993V93.5241Z" fill="#343D68"/>
<path d="M80.2631 266.25H20.3852V245.999H51.6404L80.2631 266.25Z" fill="#4F47C8"/>
<path d="M20.2207 262.279V321.443H214.66V262.279H20.2207ZM132.574 311.516H32.8872V303.177H132.574V311.516ZM132.574 296.03H32.8872V287.692H132.574V296.03ZM201.993 280.544H32.8872V272.206H201.993V280.544Z" fill="#343D68"/>
<path d="M269.767 121.319H242.131V87.9648H260.885V88.7589H242.789V120.525H269.109V104.642H269.767V121.319Z" fill="#343D68"/>
<path d="M255.807 112.619C255.168 110.343 247.16 102.607 252.067 101.307L256.092 107.783L274.594 85.4524L276.455 87.6983L255.807 112.619Z" fill="#4F47C8"/>
<path d="M269.767 215.822H242.131V182.468H260.885V183.262H242.789V215.028H269.109V199.145H269.767V215.822Z" fill="#343D68"/>
<path d="M255.807 207.122C255.168 204.846 247.16 197.11 252.067 195.809L256.092 202.286L274.594 179.955L276.455 182.201L255.807 207.122Z" fill="#4F47C8"/>
<path d="M269.767 309.927H242.131V276.574H260.885V277.368H242.789V309.133H269.109V293.25H269.767V309.927Z" fill="#343D68"/>
<path d="M255.807 301.228C255.168 298.952 247.16 291.216 252.067 289.915L256.092 296.392L274.594 274.061L276.455 276.307L255.807 301.228Z" fill="#4F47C8"/>
</g>
<defs>
<clipPath id="clip0_805_133">
<rect width="433" height="420" fill="white"/>
</clipPath>
</defs>
</svg>
