<svg width="267" height="197" viewBox="0 0 267 197" fill="none" xmlns="http://www.w3.org/2000/svg">
<g clip-path="url(#clip0_824_246)">
<path d="M267 182.719H0V183.288H267V182.719Z" fill="#3F3D56"/>
<path d="M167.521 85.3367C167.521 85.3367 155.545 93.9544 161.533 95.913C167.521 97.8716 171.37 88.8621 171.37 88.8621L167.521 85.3367Z" fill="#E9C1A1"/>
<path d="M167.949 82.2029L165.382 86.12C165.382 86.12 169.66 86.12 170.515 91.9957L173.937 88.0786L167.949 82.2029Z" fill="#CFCCE0"/>
<path d="M224.835 171.514L225.263 183.265L220.13 186.007L217.991 184.832L218.419 171.514H224.835Z" fill="#E9C1A1"/>
<path d="M194.467 168.38L195.322 180.915L183.346 185.616L184.202 178.956C184.202 178.956 187.624 173.864 186.768 168.38H194.467Z" fill="#E9C1A1"/>
<path d="M212.859 73.9771C212.859 73.9771 219.702 90.4291 220.985 100.614C222.268 110.798 224.407 137.827 224.407 137.827L228.684 172.689L216.708 174.256L211.576 139.002L200.027 104.139L197.461 139.002L195.322 170.731L184.202 171.122L183.346 138.218L178.642 96.3048L181.208 76.3273L212.859 73.9771Z" fill="#2F2E41"/>
<path d="M219.275 184.049C219.275 184.049 219.976 177.47 225.186 181.151L226.118 180.523L230.395 189.141C230.395 189.141 235.528 195.8 226.546 196.584C217.564 197.367 218.419 189.141 218.419 189.141L217.564 185.616L217.991 183.307L219.275 184.049Z" fill="#2F2E41"/>
<path d="M194.467 176.214C195.52 176.766 196.392 177.565 196.994 178.529C197.596 179.494 197.905 180.588 197.889 181.698C197.889 185.616 197.461 186.007 197.461 186.007L191.045 187.574C191.045 187.574 186.768 187.182 184.202 189.533C181.636 191.883 168.804 193.45 168.804 190.316C168.804 187.182 179.497 182.09 179.497 182.09C179.497 182.09 182.672 177.179 184.934 177.676C187.196 178.173 188.051 178.956 188.051 179.348C188.051 179.74 186.768 182.482 186.768 182.482C186.768 182.482 194.039 180.915 194.467 176.214Z" fill="#2F2E41"/>
<path d="M193.612 25.7959C199.517 25.7959 204.304 21.4115 204.304 16.0031C204.304 10.5946 199.517 6.21021 193.612 6.21021C187.706 6.21021 182.919 10.5946 182.919 16.0031C182.919 21.4115 187.706 25.7959 193.612 25.7959Z" fill="#E9C1A1"/>
<path d="M201.524 18.5493L206.229 28.3422L193.398 45.1859C193.398 45.1859 192.542 26.7753 189.976 23.6416C187.41 20.5079 201.524 18.5493 201.524 18.5493Z" fill="#E9C1A1"/>
<path d="M195.536 38.9186L197.675 33.8264L199.386 34.2179L201.524 32.6511L204.518 24.0334L208.796 26.7754L214.356 78.09L179.711 78.8734L184.416 43.2274L188.693 33.0429L191.78 29.3049L193.825 35.0014L195.536 38.9186Z" fill="#CFCCE0"/>
<path d="M205.374 60.8544L206.683 25.4207C206.683 25.4207 209.223 25.6001 210.079 26.7752C210.934 27.9504 225.049 30.3006 225.049 30.3006L222.482 66.7301C222.482 66.7301 233.175 95.717 229.326 97.2839C225.476 98.8508 218.633 98.459 218.633 98.459L205.374 60.8544Z" fill="#575A89"/>
<path d="M184.63 56.3497L189.167 32.4688L179.069 38.7225L181.636 55.958L179.497 67.7094C179.497 67.7094 171.37 100.222 173.937 101.397C176.503 102.572 179.497 101.397 179.497 101.397L184.63 68.4929V56.3497Z" fill="#575A89"/>
<path d="M182.063 37.9392L179.069 38.7227L177.786 54.3913L175.648 68.1013L165.382 84.945C165.382 84.945 170.515 81.8113 172.654 90.8207L183.959 72.7951L182.063 37.9392Z" fill="#575A89"/>
<path d="M215.425 82.2029C215.425 82.2029 203.449 90.8206 209.437 92.7792C215.425 94.7378 219.274 85.7283 219.274 85.7283L215.425 82.2029Z" fill="#E9C1A1"/>
<path d="M222.696 86.5119L218.847 90.8207L213.714 82.5947L215.853 79.0693L222.696 86.5119Z" fill="#CFCCE0"/>
<path d="M221.841 31.6718L225.263 30.105C225.263 30.105 227.829 33.2387 228.257 35.9807C228.684 38.7227 230.823 42.2481 230.823 44.2067C230.823 46.1653 236.811 64.5759 236.811 64.5759L223.124 90.0374C223.124 90.0374 220.13 80.6362 213.714 79.8528L224.407 66.1427L218.419 56.3499L221.841 31.6718Z" fill="#575A89"/>
<path d="M202.563 6.67261L204.58 5.93331C204.58 5.93331 200.364 1.68233 194.498 2.052L196.147 0.388552C196.147 0.388552 192.115 -1.09004 188.448 2.79128C186.521 4.83159 184.291 7.22989 182.901 9.93154H180.742L181.643 11.749L178.489 13.5664L181.727 13.24C181.534 14.2352 181.504 15.2513 181.639 16.2545C181.778 17.2581 182.337 18.173 183.198 18.8061C183.198 18.8061 185.699 14.0656 185.699 13.3263V15.1745C185.699 15.1745 187.715 13.5111 187.715 12.4022L188.815 13.696L189.365 11.6629L196.147 13.696L195.048 12.0325L199.264 12.587L197.614 10.5539C197.614 10.5539 202.38 12.9566 202.563 14.9897C202.746 17.0228 204.141 18.9492 204.141 18.9492C204.141 18.9492 207.879 9.44498 202.563 6.67261Z" fill="#2F2E41"/>
<path d="M202.38 15.8072C203.041 15.8072 203.577 15.1934 203.577 14.4362C203.577 13.679 203.041 13.0652 202.38 13.0652C201.718 13.0652 201.182 13.679 201.182 14.4362C201.182 15.1934 201.718 15.8072 202.38 15.8072Z" fill="#E9C1A1"/>
<path d="M49.4925 80.8465H12.5701V71.3711H31.8429L49.4925 80.8465Z" fill="#536DFE"/>
<path d="M12.4687 79.5459V107.229H132.365V79.5459H12.4687ZM59.2304 102.585H20.2792V98.6828H59.2304V102.585ZM124.555 95.3385H20.2792V91.4368H124.555V95.3385ZM124.555 88.0925H20.2792V84.1908H124.555V88.0925Z" fill="#3F3D56"/>
<path d="M49.4925 36.0699H12.5701V26.5942H31.8429L49.4925 36.0699Z" fill="#536DFE"/>
<path d="M12.4687 35.3267V63.0102H132.365V35.3267H12.4687ZM59.2304 58.3653H20.2792V54.4636H59.2304V58.3653ZM81.7491 51.1193H20.2792V47.2176H81.749L81.7491 51.1193ZM124.555 43.8732H20.2792V39.9715H124.555V43.8732Z" fill="#3F3D56"/>
<path d="M49.4925 124.694H12.5701V115.219H31.8429L49.4925 124.694Z" fill="#536DFE"/>
<path d="M12.4687 122.836V150.52H132.365V122.836H12.4687ZM81.749 145.875H20.2792V141.973H81.749V145.875ZM81.749 138.629H20.2792V134.727H81.749V138.629ZM124.555 131.383H20.2792V127.481H124.555V131.383Z" fill="#3F3D56"/>
<path d="M166.346 56.8792H149.305V41.2722H160.869V41.6438H149.711V56.5076H165.94V49.0757H166.346V56.8792Z" fill="#3F3D56"/>
<path d="M157.738 52.8082C157.344 51.7432 152.406 48.1233 155.432 47.5148L157.913 50.5452L169.323 40.0964L170.47 41.1473L157.738 52.8082Z" fill="#536DFE"/>
<path d="M166.346 101.098H149.305V85.4915H160.869V85.8633H149.711V100.727H165.94V93.2949H166.346V101.098Z" fill="#3F3D56"/>
<path d="M157.738 97.0274C157.344 95.9625 152.406 92.3425 155.432 91.734L157.913 94.7645L169.323 84.3157L170.47 85.3666L157.738 97.0274Z" fill="#536DFE"/>
<path d="M166.346 145.132H149.305V129.525H160.869V129.896H149.711V144.76H165.94V137.328H166.346V145.132Z" fill="#3F3D56"/>
<path d="M157.738 141.061C157.344 139.996 152.406 136.376 155.432 135.768L157.913 138.798L169.323 128.349L170.47 129.4L157.738 141.061Z" fill="#536DFE"/>
</g>
<defs>
<clipPath id="clip0_824_246">
<rect width="267" height="196.524" fill="white" transform="translate(0 0.112061)"/>
</clipPath>
</defs>
</svg>
