<svg width="1374" height="444" viewBox="0 0 1374 444" fill="none" xmlns="http://www.w3.org/2000/svg">
<mask id="mask0_401_154" style="mask-type:alpha" maskUnits="userSpaceOnUse" x="0" y="0" width="1374" height="444">
<rect width="1374" height="444" fill="#D9D9D9"/>
</mask>
<g mask="url(#mask0_401_154)">
<path fill-rule="evenodd" clip-rule="evenodd" d="M0 78.5664L57.25 65.0944C114.5 51.6224 229 25.2908 343.5 16.7177C458 7.53225 572.5 16.7177 687 29.5773C801.5 43.0493 916 60.8078 1030.5 65.0944C1145 69.3809 1259.5 60.8078 1316.75 56.5213L1374 51.6224V263.5H1316.75C1259.5 263.5 1145 263.5 1030.5 263.5C916 263.5 801.5 263.5 687 263.5C572.5 263.5 458 263.5 343.5 263.5C229 263.5 114.5 263.5 57.25 263.5H0V78.5664Z" fill="#343D68"/>
<path fill-rule="evenodd" clip-rule="evenodd" d="M1374 443.434L1316.75 456.906C1259.5 470.378 1145 496.709 1030.5 505.282C916 514.468 801.5 505.282 687 492.423C572.5 478.951 458 461.192 343.5 456.906C229 452.619 114.5 461.192 57.25 465.479L0 470.378V258.5H57.25C114.5 258.5 229 258.5 343.5 258.5C458 258.5 572.5 258.5 687 258.5C801.5 258.5 916 258.5 1030.5 258.5C1145 258.5 1259.5 258.5 1316.75 258.5H1374V443.434Z" fill="#343D68"/>
</g>
</svg>
