<svg width="31" height="30" viewBox="0 0 31 30" fill="none" xmlns="http://www.w3.org/2000/svg">
<g clip-path="url(#clip0_401_200)">
<path d="M4.82573 24.1866L5.25623 23.1821L4.64334 22.2772C3.18564 20.1251 2.41669 17.6184 2.41669 15C2.41669 11.5238 3.76617 8.26561 6.22425 5.80759C8.68236 3.34953 11.9405 2 15.4167 2C18.8929 2 22.1511 3.34954 24.609 5.80756C27.0671 8.26569 28.4167 11.5238 28.4167 15C28.4167 18.4762 27.0671 21.7343 24.609 24.1924C22.1511 26.6505 18.8929 28 15.4167 28C12.7065 28 10.1296 27.1818 7.93141 25.6292L6.97496 24.9537L5.91775 25.4571L3.86165 26.4362L4.82573 24.1866ZM0.916713 29.5001L0.916695 29.5L0.916663 29.5L0.916713 29.5001Z" stroke="white" stroke-width="4"/>
<path d="M23.4083 20.0766L22.9588 17.6414C22.9215 17.4403 22.7657 17.282 22.5651 17.2419L19.0296 16.5348C18.8655 16.5021 18.6962 16.5534 18.5779 16.6716L17.1416 18.108C14.7215 17.0236 13.3783 15.6776 12.1965 13.1536L13.6282 11.7218C13.7465 11.6036 13.7977 11.4341 13.765 11.2701L13.0579 7.73458C13.0177 7.53401 12.8595 7.37809 12.6583 7.34094L10.2231 6.89135C10.1564 6.87905 10.0878 6.8804 10.0215 6.89546C9.37854 7.04159 8.79184 7.36555 8.32491 7.8326C7.51626 8.64126 7.20723 9.82116 7.43124 11.2449C7.80729 13.6356 8.97864 16.9627 11.1396 19.1322L11.169 19.1615C13.337 21.321 16.664 22.4924 19.0547 22.8685C19.3559 22.9159 19.646 22.9394 19.9241 22.9394C20.9609 22.9394 21.8294 22.6124 22.4671 21.9748C22.9341 21.5077 23.2581 20.921 23.4042 20.2781C23.4193 20.2119 23.4207 20.1433 23.4083 20.0766Z" fill="white"/>
</g>
<defs>
<clipPath id="clip0_401_200">
<rect width="30" height="30" fill="white" transform="translate(0.416687)"/>
</clipPath>
</defs>
</svg>
