<svg width="31" height="31" viewBox="0 0 31 31" fill="none" xmlns="http://www.w3.org/2000/svg">
<g clip-path="url(#clip0_304_43)">
<path d="M4.74235 25.0299L5.17286 24.0254L4.55996 23.1205C3.10227 20.9684 2.33331 18.4617 2.33331 15.8433C2.33331 12.367 3.6828 9.10887 6.14087 6.65085C8.59898 4.19279 11.8571 2.84326 15.3333 2.84326C18.8095 2.84326 22.0677 4.1928 24.5257 6.65082C26.9837 9.10895 28.3333 12.3671 28.3333 15.8433C28.3333 19.3195 26.9837 22.5776 24.5257 25.0357C22.0677 27.4937 18.8095 28.8433 15.3333 28.8433C12.6232 28.8433 10.0463 28.025 7.84804 26.4725L6.89158 25.797L5.83438 26.3004L3.77828 27.2795L4.74235 25.0299ZM0.833339 30.3433L0.833321 30.3433L0.833289 30.3433L0.833339 30.3433Z" stroke="white" stroke-width="4"/>
<path d="M23.325 20.9199L22.8754 18.4847C22.8382 18.2836 22.6823 18.1253 22.4818 18.0852L18.9463 17.3781C18.7821 17.3454 18.6128 17.3967 18.4946 17.5149L17.0582 18.9512C14.6382 17.8668 13.295 16.5209 12.1131 13.9968L13.5449 12.565C13.6631 12.4469 13.7144 12.2773 13.6816 12.1134L12.9745 8.57785C12.9344 8.37729 12.7761 8.22137 12.575 8.18422L10.1398 7.73463C10.0731 7.72233 10.0044 7.72367 9.93821 7.73873C9.2952 7.88486 8.7085 8.20883 8.24157 8.67588C7.43291 9.48453 7.12389 10.6644 7.34789 12.0882C7.72395 14.4789 8.8953 17.806 11.0562 19.9755L11.0856 20.0048C13.2537 22.1643 16.5807 23.3356 18.9714 23.7117C19.2725 23.7591 19.5627 23.7826 19.8408 23.7826C20.8775 23.7826 21.7461 23.4556 22.3838 22.8181C22.8507 22.351 23.1748 21.7643 23.3208 21.1214C23.336 21.0552 23.3374 20.9866 23.325 20.9199Z" fill="white"/>
</g>
<defs>
<clipPath id="clip0_304_43">
<rect width="30" height="30" fill="white" transform="translate(0.333313 0.843262)"/>
</clipPath>
</defs>
</svg>
